<?xml version="1.0" encoding="utf-8"?>
<!-- Generator: Adobe Illustrator 23.0.1, SVG Export Plug-In . SVG Version: 6.00 Build 0)  -->
<svg version="1.1" id="Layer_1" xmlns="http://www.w3.org/2000/svg" xmlns:xlink="http://www.w3.org/1999/xlink" x="0px" y="0px"
	 viewBox="0 0 343 96" style="enable-background:new 0 0 343 96;" xml:space="preserve">
<style type="text/css">
	.st0{fill:#58595B;}
	.st1{fill:#13377D;}
</style>
<g>
	<g>
		<path class="st0" d="M106.4,35.6h-1.8v-11h1.8l3.7,5l3.7-5h1.8v11h-1.8v-8.4l-3.2,4.2h-1.1l-3.2-4.2L106.4,35.6L106.4,35.6z"/>
		<path class="st0" d="M120.1,35.6h-1.6v-11h1.8v8.1l6.3-8.1h1.6v11h-1.8v-8.1L120.1,35.6z"/>
		<path class="st0" d="M132.8,35.6H131v-11h1.8V29h6v-4.4h1.8v11h-1.8v-5.1h-6V35.6z"/>
		<path class="st0" d="M145,35.6h-1.5v-11h1.8v8.1l6.3-8.1h1.6v11h-1.8v-8.1L145,35.6z"/>
		<path class="st0" d="M161.5,35.8c-1.7,0-3.2-0.5-4.3-1.6c-1.2-1.1-1.7-2.5-1.7-4.1c0-1.7,0.6-3,1.7-4.1c1.2-1.1,2.6-1.6,4.3-1.6
			c1.2,0,2.2,0.3,3.1,0.7v1.7c-0.9-0.6-1.9-0.9-3.1-0.9c-1.2,0-2.2,0.4-3,1.2c-0.8,0.8-1.2,1.7-1.2,2.9s0.4,2.2,1.2,2.9
			c0.8,0.8,1.8,1.2,3.1,1.2s2.4-0.3,3.3-1v1.7C163.8,35.5,162.7,35.8,161.5,35.8z"/>
		<path class="st0" d="M166.3,26.2v-1.6h9.4v1.6h-3.8v9.5h-1.8v-9.5H166.3z"/>
		<path class="st0" d="M186,35.6h-8.4v-11h8.2v1.6h-6.4V29h5.2v1.6h-5.2V34h6.6L186,35.6L186,35.6z"/>
		<path class="st0" d="M189.7,35.6H188v-11h5c1.2,0,2.2,0.3,2.8,0.9c0.7,0.6,1.1,1.4,1.1,2.3s-0.4,1.7-1.1,2.4
			c-0.7,0.6-1.6,0.9-2.8,0.9h-3.2v4.5H189.7z M189.7,26.2v3.3h3c0.7,0,1.2-0.2,1.6-0.4c0.4-0.3,0.6-0.7,0.6-1.2s-0.2-0.9-0.6-1.2
			c-0.4-0.3-0.9-0.4-1.6-0.4L189.7,26.2L189.7,26.2z"/>
		<path class="st0" d="M204.4,35.8c-1.7,0-3.2-0.5-4.3-1.6c-1.2-1.1-1.7-2.5-1.7-4.1c0-1.7,0.6-3,1.7-4.1c1.2-1.1,2.6-1.6,4.3-1.6
			c1.2,0,2.2,0.3,3.1,0.7v1.7c-0.9-0.6-1.9-0.9-3.1-0.9c-1.2,0-2.2,0.4-3,1.2c-0.8,0.8-1.2,1.7-1.2,2.9s0.4,2.2,1.2,2.9
			c0.8,0.8,1.8,1.2,3.1,1.2s2.4-0.3,3.3-1v1.7C206.8,35.5,205.7,35.8,204.4,35.8z"/>
		<path class="st0" d="M209.2,26.2v-1.6h9.4v1.6h-3.8v9.5H213v-9.5H209.2z"/>
		<path class="st0" d="M226.1,35.6h-5.6v-11h5.2c1.1,0,1.8,0.3,2.5,0.7c0.6,0.5,0.9,1.2,0.9,2c0,0.5-0.2,1-0.4,1.4
			c-0.3,0.4-0.6,0.7-1.1,0.8c0.7,0.1,1.3,0.5,1.7,1s0.7,1.2,0.7,2c0,0.9-0.4,1.7-1.1,2.3C228.3,35.3,227.4,35.6,226.1,35.6z
			 M222.3,26.2V29h3.1c0.6,0,1.1-0.1,1.4-0.4c0.3-0.3,0.5-0.6,0.5-1.1s-0.2-0.8-0.5-1.1c-0.3-0.3-0.8-0.4-1.4-0.4h-3.1V26.2z
			 M222.3,30.5V34h3.5c0.7,0,1.3-0.2,1.6-0.5c0.4-0.3,0.6-0.7,0.6-1.3c0-0.5-0.2-0.9-0.6-1.3c-0.4-0.3-0.9-0.4-1.6-0.4
			C225.8,30.5,222.3,30.5,222.3,30.5z"/>
		<path class="st0" d="M241.8,34.2c-1.1,1.1-2.5,1.6-4.2,1.6s-3.1-0.5-4.2-1.6c-1.1-1.1-1.6-2.5-1.6-4.1s0.5-3,1.6-4
			c1.1-1.1,2.5-1.7,4.2-1.7s3.1,0.6,4.2,1.7c1.1,1.1,1.7,2.5,1.7,4S242.9,33.1,241.8,34.2z M234.8,33c0.8,0.8,1.7,1.2,2.8,1.2
			s2.1-0.4,2.8-1.2c0.8-0.8,1.2-1.8,1.2-2.9c0-1.2-0.4-2.2-1.2-2.9c-0.8-0.8-1.7-1.2-2.8-1.2s-2.1,0.4-2.8,1.2
			c-0.8,0.8-1.2,1.7-1.2,2.9S234,32.2,234.8,33z"/>
		<path class="st0" d="M252,35.6h-1.8v-11h1.8V29h6v-4.4h1.8v11H258v-5.1h-6V35.6z"/>
		<path class="st0" d="M263.5,35.6h-1.9l5-11.1h1.7l5,11.1h-1.9l-1.3-2.7h-5.4L263.5,35.6z M267.5,26.7l-2.1,4.6h4.2L267.5,26.7z"/>
		<path class="st0" d="M276.8,35.8c-0.7,0-1.3-0.1-1.6-0.3v-1.6c0.4,0.2,0.8,0.3,1.3,0.3s0.8-0.1,1.2-0.4c0.3-0.2,0.6-0.7,1-1.5
			l-4.5-7.8h2.1l3.4,6l2.8-6h1.9l-4.2,8.7C279.3,35,278.2,35.8,276.8,35.8z"/>
		<path class="st0" d="M287.9,35.6h-1.8v-11h1.8v4.5l4.7-4.5h2.3l-5.3,5l6.2,6h-2.4l-5.4-5.3v5.3H287.9z"/>
		<path class="st0" d="M299,35.6h-1.5v-11h1.8v8.1l6.3-8.1h1.6v11h-1.8v-8.1L299,35.6z"/>
		<path class="st0" d="M106.2,54.7h-1.5v-11h1.8v8.1l6.3-8.1h1.6v11h-1.8v-8.1L106.2,54.7z"/>
		<path class="st0" d="M127.1,54.7h-5.6v-11h5.2c1.1,0,1.8,0.3,2.5,0.7c0.6,0.5,0.9,1.2,0.9,2c0,0.5-0.2,1-0.4,1.4s-0.6,0.7-1.1,0.8
			c0.7,0.1,1.3,0.5,1.7,1s0.7,1.2,0.7,2c0,0.9-0.4,1.7-1.1,2.3C129.2,54.4,128.3,54.7,127.1,54.7z M123.3,45.2V48h3.1
			c0.6,0,1.1-0.1,1.4-0.4c0.3-0.3,0.5-0.6,0.5-1.1s-0.2-0.8-0.5-1.1S127,45,126.4,45h-3.1V45.2z M123.3,49.6v3.5h3.5
			c0.7,0,1.3-0.2,1.6-0.5c0.4-0.3,0.6-0.7,0.6-1.3c0-0.5-0.2-0.9-0.6-1.3c-0.4-0.3-0.9-0.4-1.6-0.4H123.3z"/>
		<path class="st0" d="M137.6,54.7h-4.4v-11h1.8v3.8h2.6c1.3,0,2.4,0.3,3.2,1s1.2,1.5,1.2,2.6s-0.4,1.9-1.2,2.6
			C139.9,54.4,138.9,54.7,137.6,54.7z M135,49.1v4h2.5c0.8,0,1.4-0.2,1.9-0.5s0.7-0.8,0.7-1.5s-0.2-1.2-0.7-1.5s-1.1-0.5-1.9-0.5
			H135z M145.2,54.7h-1.8v-11h1.8V54.7z"/>
		<path class="st0" d="M153.5,54.9c-1.7,0-3.2-0.5-4.3-1.6c-1.2-1.1-1.7-2.5-1.7-4.1c0-1.7,0.6-3,1.7-4.1c1.2-1.1,2.6-1.6,4.3-1.6
			c1.2,0,2.2,0.3,3.1,0.7v1.7c-0.9-0.6-1.9-0.9-3.1-0.9c-1.2,0-2.2,0.4-3,1.2s-1.2,1.7-1.2,2.9s0.4,2.2,1.2,2.9
			c0.8,0.8,1.8,1.2,3.1,1.2s2.4-0.3,3.3-1v1.7C155.9,54.6,154.8,54.9,153.5,54.9z"/>
		<path class="st0" d="M173.1,54.7h-14v-11h1.8v9.5h4.3v-9.5h1.8v9.5h4.3v-9.5h1.8L173.1,54.7L173.1,54.7z"/>
		<path class="st0" d="M184.2,54.7h-8.4v-11h8.2v1.6h-6.4V48h5.2v1.6h-5.2v3.5h6.6L184.2,54.7L184.2,54.7z"/>
		<path class="st0" d="M188,54.7h-1.8v-11h8.1v1.6H188V54.7z"/>
		<path class="st0" d="M205.4,53.3c-1.1,1.1-2.5,1.6-4.2,1.6s-3.1-0.5-4.2-1.6c-1.1-1.1-1.6-2.5-1.6-4.1s0.5-3,1.6-4
			c1.1-1.1,2.5-1.7,4.2-1.7s3.1,0.6,4.2,1.7c1.1,1.1,1.7,2.5,1.7,4C207.1,50.7,206.5,52.2,205.4,53.3z M198.3,52.1
			c0.8,0.8,1.7,1.2,2.8,1.2s2.1-0.4,2.8-1.2c0.8-0.8,1.2-1.8,1.2-2.9c0-1.2-0.4-2.2-1.2-2.9c-0.8-0.8-1.7-1.2-2.8-1.2
			s-2.1,0.4-2.8,1.2c-0.8,0.8-1.2,1.7-1.2,2.9C197.2,50.4,197.5,51.3,198.3,52.1z"/>
		<path class="st0" d="M223.4,53.3c-1.1,1.1-2.5,1.6-4.2,1.6s-3.1-0.5-4.2-1.6c-1.1-1.1-1.6-2.5-1.6-4.1s0.5-3,1.6-4
			c1.1-1.1,2.5-1.7,4.2-1.7s3.1,0.6,4.2,1.7c1.1,1.1,1.7,2.5,1.7,4C225.1,50.7,224.5,52.2,223.4,53.3z M216.3,52.1
			c0.8,0.8,1.7,1.2,2.8,1.2s2.1-0.4,2.8-1.2c0.8-0.8,1.2-1.8,1.2-2.9c0-1.2-0.4-2.2-1.2-2.9c-0.8-0.8-1.7-1.2-2.8-1.2
			s-2.1,0.4-2.8,1.2c-0.8,0.8-1.2,1.7-1.2,2.9C215.2,50.4,215.6,51.3,216.3,52.1z"/>
		<path class="st0" d="M232.2,54.7h-4.8v-11h8.1v1.6h-6.3v2.3h3.1c1.3,0,2.3,0.3,3.1,1c0.7,0.6,1.2,1.5,1.2,2.6s-0.4,1.9-1.2,2.6
			C234.6,54.4,233.5,54.7,232.2,54.7z M229.1,49.2v3.9h2.9c0.8,0,1.4-0.2,1.9-0.5c0.4-0.4,0.7-0.8,0.7-1.4s-0.2-1.1-0.7-1.5
			s-1.1-0.5-1.9-0.5H229.1z"/>
		<path class="st0" d="M240.3,54.7h-1.8v-11h4.9c1.2,0,2.2,0.3,2.8,0.9c0.7,0.6,1.1,1.4,1.1,2.3c0,0.9-0.4,1.7-1.1,2.4
			c-0.7,0.6-1.6,0.9-2.8,0.9h-3.2v4.5H240.3z M240.3,45.2v3.3h3c0.7,0,1.2-0.2,1.6-0.4s0.6-0.7,0.6-1.2s-0.2-0.9-0.6-1.2
			s-0.9-0.4-1.6-0.4L240.3,45.2L240.3,45.2z"/>
		<path class="st0" d="M249,54.7h-1.9l5-11.1h1.7l5,11.1H257l-1.3-2.7h-5.4L249,54.7z M253,45.7l-2.1,4.6h4.2L253,45.7z"/>
		<path class="st0" d="M264.3,54.9c-1.6,0-2.9-0.3-4-0.9v-1.7c0.5,0.3,1.1,0.6,1.8,0.7c0.7,0.2,1.3,0.3,2,0.3c0.9,0,1.7-0.2,2.3-0.5
			c0.6-0.4,0.8-0.8,0.8-1.4c0-0.5-0.3-0.9-0.8-1.3c-0.5-0.3-1.2-0.5-2.1-0.5H263V48h1.6c0.7,0,1.3-0.2,1.6-0.4
			c0.4-0.3,0.6-0.6,0.6-1.1s-0.2-0.8-0.7-1.1c-0.4-0.3-1.1-0.4-1.8-0.4c-1.2,0-2.4,0.3-3.5,0.8v-1.6c1.1-0.6,2.3-0.8,3.6-0.8
			c1.3,0,2.3,0.3,3,0.8c0.8,0.5,1.2,1.3,1.2,2.2c0,0.6-0.2,1.1-0.6,1.5s-0.8,0.7-1.2,0.8c0.6,0.2,1.1,0.5,1.6,1s0.7,1.1,0.7,1.8
			c0,1-0.4,1.8-1.3,2.5C266.8,54.6,265.7,54.9,264.3,54.9z"/>
		<path class="st0" d="M280.8,53.3c-1.1,1.1-2.5,1.6-4.2,1.6s-3.1-0.5-4.2-1.6s-1.6-2.5-1.6-4.1s0.5-3,1.6-4
			c1.1-1.1,2.5-1.7,4.2-1.7s3.1,0.6,4.2,1.7c1.1,1.1,1.7,2.5,1.7,4S281.9,52.2,280.8,53.3z M273.7,52.1c0.8,0.8,1.7,1.2,2.8,1.2
			c1.1,0,2.1-0.4,2.8-1.2c0.8-0.8,1.2-1.8,1.2-2.9c0-1.2-0.4-2.2-1.2-2.9s-1.7-1.2-2.8-1.2c-1.1,0-2.1,0.4-2.8,1.2
			c-0.8,0.8-1.2,1.7-1.2,2.9C272.6,50.4,273,51.3,273.7,52.1z"/>
		<path class="st0" d="M290.4,54.7h-5.6v-11h5.2c1.1,0,1.8,0.3,2.5,0.7c0.6,0.5,0.9,1.2,0.9,2c0,0.5-0.2,1-0.4,1.4
			c-0.3,0.4-0.6,0.7-1.1,0.8c0.7,0.1,1.3,0.5,1.7,1c0.4,0.5,0.7,1.2,0.7,2c0,0.9-0.4,1.7-1.1,2.3C292.5,54.4,291.5,54.7,290.4,54.7z
			 M286.5,45.2V48h3.1c0.6,0,1.1-0.1,1.4-0.4c0.3-0.3,0.5-0.6,0.5-1.1s-0.2-0.8-0.5-1.1s-0.8-0.4-1.4-0.4h-3.1V45.2z M286.5,49.6
			v3.5h3.5c0.7,0,1.3-0.2,1.6-0.5c0.4-0.3,0.6-0.7,0.6-1.3c0-0.5-0.2-0.9-0.6-1.3c-0.4-0.3-0.9-0.4-1.6-0.4H286.5z"/>
		<path class="st0" d="M297.2,54.7h-1.9l5-11.1h1.7l5,11.1h-1.9l-1.3-2.7h-5.4L297.2,54.7z M301.2,45.7l-2.1,4.6h4.2L301.2,45.7z"/>
		<path class="st0" d="M310.7,54.7h-1.8v-11h1.8V48h6v-4.4h1.8v11h-1.8v-5.1h-6V54.7z"/>
		<path class="st0" d="M322.8,54.7h-1.5v-11h1.8v8.1l6.3-8.1h1.6v11h-1.8v-8.1L322.8,54.7z"/>
		<path class="st0" d="M335,54.7h-2.2l3.7-4.8c-0.8-0.2-1.4-0.5-1.9-1.1c-0.5-0.5-0.7-1.2-0.7-1.9c0-0.9,0.3-1.7,1-2.3
			s1.6-0.8,2.8-0.8h5.2v11h-1.8V50h-2.7L335,54.7z M337.8,48.5h3.4v-3.3h-3.4c-0.6,0-1.2,0.2-1.5,0.4c-0.4,0.3-0.5,0.7-0.5,1.2
			s0.2,0.9,0.5,1.2C336.7,48.3,337.2,48.5,337.8,48.5z"/>
		<path class="st0" d="M106.4,73.8h-1.8v-11h5c1.2,0,2.2,0.3,2.8,0.9c0.7,0.6,1.1,1.4,1.1,2.3s-0.4,1.7-1.1,2.4
			c-0.7,0.6-1.6,0.9-2.8,0.9h-3.2V73.8z M106.4,64.3v3.3h3c0.7,0,1.2-0.2,1.6-0.4c0.4-0.3,0.6-0.7,0.6-1.2s-0.2-0.9-0.6-1.2
			c-0.4-0.3-0.9-0.4-1.6-0.4L106.4,64.3L106.4,64.3z"/>
		<path class="st0" d="M125.1,72.3c-1.1,1.1-2.5,1.6-4.2,1.6s-3.1-0.5-4.2-1.6s-1.6-2.5-1.6-4.1s0.5-3,1.6-4
			c1.1-1.1,2.5-1.7,4.2-1.7s3.1,0.6,4.2,1.7c1.1,1.1,1.7,2.5,1.7,4C126.8,69.8,126.2,71.2,125.1,72.3z M118.1,71.1
			c0.8,0.8,1.7,1.2,2.8,1.2s2.1-0.4,2.8-1.2c0.8-0.8,1.2-1.8,1.2-2.9s-0.4-2.2-1.2-2.9c-0.8-0.8-1.7-1.2-2.8-1.2s-2.1,0.4-2.8,1.2
			c-0.8,0.8-1.2,1.7-1.2,2.9S117.3,70.4,118.1,71.1z"/>
		<path class="st0" d="M134.8,74c-1.7,0-3.2-0.5-4.3-1.6c-1.2-1.1-1.7-2.5-1.7-4.1c0-1.7,0.6-3,1.7-4.1c1.2-1.1,2.6-1.6,4.3-1.6
			c1.2,0,2.2,0.3,3.1,0.7V65c-0.9-0.6-1.9-0.9-3.1-0.9c-1.2,0-2.2,0.4-3,1.2c-0.8,0.8-1.2,1.7-1.2,2.9s0.4,2.2,1.2,2.9
			c0.8,0.8,1.8,1.2,3.1,1.2s2.4-0.3,3.3-1V73C137.2,73.7,136.1,74,134.8,74z"/>
		<path class="st0" d="M145.7,74c-1.7,0-3.2-0.5-4.3-1.6c-1.2-1.1-1.7-2.5-1.7-4.1c0-1.7,0.6-3,1.7-4.1c1.2-1.1,2.6-1.6,4.3-1.6
			c1.2,0,2.2,0.3,3.1,0.7V65c-0.9-0.6-1.9-0.9-3.1-0.9c-1.2,0-2.2,0.4-3,1.2c-0.8,0.8-1.2,1.7-1.2,2.9s0.4,2.2,1.2,2.9
			c0.8,0.8,1.8,1.2,3.1,1.2s2.4-0.3,3.3-1V73C148,73.7,146.9,74,145.7,74z"/>
		<path class="st0" d="M152.7,73.8h-1.5v-11h1.8v8.1l6.3-8.1h1.6v11h-1.8v-8.1L152.7,73.8z"/>
		<path class="st0" d="M165.2,73.8h-1.5v-11h1.8v8.1l6.3-8.1h1.6v11h-1.8v-8.1L165.2,73.8z M168.5,62c-0.8,0-1.6-0.3-2.1-0.7
			c-0.5-0.5-0.8-1.1-0.8-1.9h1.5c0,0.4,0.1,0.7,0.4,0.9c0.3,0.3,0.6,0.4,1,0.4s0.8-0.1,1-0.4c0.3-0.3,0.4-0.6,0.4-0.9h1.5
			c0,0.8-0.3,1.4-0.8,1.9C170.1,61.8,169.4,62,168.5,62z"/>
		<path class="st0" d="M181.7,74c-1.7,0-3.2-0.5-4.3-1.6c-1.2-1.1-1.7-2.5-1.7-4.1c0-1.7,0.6-3,1.7-4.1c1.2-1.1,2.6-1.6,4.3-1.6
			c1.2,0,2.2,0.3,3.1,0.7V65c-0.9-0.6-1.9-0.9-3.1-0.9c-1.2,0-2.2,0.4-3,1.2c-0.8,0.8-1.2,1.7-1.2,2.9s0.4,2.2,1.2,2.9
			c0.8,0.8,1.8,1.2,3.1,1.2s2.4-0.3,3.3-1V73C184.1,73.7,183,74,181.7,74z"/>
		<path class="st0" d="M189.1,73.8h-1.8v-11h1.8v4.5l4.7-4.5h2.3l-5.3,5l6.2,6h-2.5l-5.4-5.3V73.8z"/>
		<path class="st0" d="M207.1,72.3c-1.1,1.1-2.5,1.6-4.2,1.6s-3.1-0.5-4.2-1.6c-1.1-1.1-1.6-2.5-1.6-4.1s0.5-3,1.6-4
			c1.1-1.1,2.5-1.7,4.2-1.7s3.1,0.6,4.2,1.7c1.1,1.1,1.7,2.5,1.7,4C208.7,69.8,208.2,71.2,207.1,72.3z M200,71.1
			c0.8,0.8,1.7,1.2,2.8,1.2s2.1-0.4,2.8-1.2c0.8-0.8,1.2-1.8,1.2-2.9s-0.4-2.2-1.2-2.9c-0.8-0.8-1.7-1.2-2.8-1.2s-2.1,0.4-2.8,1.2
			c-0.8,0.8-1.2,1.7-1.2,2.9C198.9,69.4,199.2,70.4,200,71.1z"/>
		<path class="st0" d="M212.6,73.8H211v-11h1.8v8.1l6.3-8.1h1.6v11h-1.8v-8.1L212.6,73.8z M215.8,62c-0.8,0-1.6-0.3-2.1-0.7
			c-0.5-0.5-0.8-1.1-0.8-1.9h1.5c0,0.4,0.1,0.7,0.4,0.9c0.3,0.3,0.6,0.4,1,0.4s0.8-0.1,1-0.4c0.3-0.3,0.4-0.6,0.4-0.9h1.5
			c0,0.8-0.3,1.4-0.8,1.9C217.3,61.8,216.7,62,215.8,62z"/>
		<path class="st0" d="M234.8,74.1H233v-1.2c-1.8-0.1-3.2-0.5-4.2-1.4c-0.9-0.9-1.4-2-1.4-3.3c0-0.6,0.1-1.2,0.4-1.7
			c0.2-0.6,0.6-1.1,1-1.5c0.4-0.5,1.1-0.8,1.8-1.1c0.7-0.3,1.6-0.4,2.5-0.5v-1.1h1.8v1.1c0.9,0,1.7,0.2,2.5,0.4
			c0.7,0.3,1.3,0.6,1.8,1.1s0.8,0.9,1,1.5s0.4,1.2,0.4,1.7s-0.1,1.2-0.4,1.7c-0.3,0.5-0.6,1.1-1,1.5c-0.5,0.5-1.1,0.8-1.8,1.1
			c-0.7,0.3-1.6,0.4-2.5,0.4L234.8,74.1L234.8,74.1z M233,71.4v-6.5c-1.2,0-2.2,0.3-2.8,0.9s-0.9,1.4-0.9,2.3s0.3,1.7,0.9,2.3
			C230.8,71,231.8,71.3,233,71.4z M234.8,64.9v6.5c1.3,0,2.2-0.3,2.8-0.9s0.9-1.4,0.9-2.3s-0.3-1.7-0.9-2.3
			C237,65.2,236,64.9,234.8,64.9z"/>
		<path class="st0" d="M250.9,73.8h-8.4v-11h8.2v1.6h-6.4v2.8h5.2v1.6h-5.2v3.5h6.6L250.9,73.8L250.9,73.8z"/>
		<path class="st0" d="M254.1,76.1h-1.7v-3.9h1.1c0.6-0.9,1.1-1.9,1.3-3.1c0.3-1.2,0.4-2.8,0.4-4.8v-1.5h7.6v9.5h1.6v3.9h-1.7v-2.4
			H254L254.1,76.1L254.1,76.1z M255.4,72.1h5.6v-7.9h-4.1c0,1.8-0.1,3.4-0.4,4.6C256.4,70.2,256,71.3,255.4,72.1z"/>
		<path class="st0" d="M274.7,73.8h-8.4v-11h8.2v1.6h-6.4v2.8h5.2v1.6h-5.2v3.5h6.6L274.7,73.8L274.7,73.8z"/>
		<path class="st0" d="M278.5,73.8h-1.8v-11h5c1.2,0,2.2,0.3,2.8,0.9c0.7,0.6,1.1,1.4,1.1,2.3s-0.4,1.7-1.1,2.4
			c-0.7,0.6-1.6,0.9-2.8,0.9h-3.2V73.8z M278.5,64.3v3.3h3c0.7,0,1.2-0.2,1.6-0.4c0.4-0.3,0.6-0.7,0.6-1.2s-0.2-0.9-0.6-1.2
			c-0.4-0.3-0.9-0.4-1.6-0.4L278.5,64.3L278.5,64.3z"/>
		<path class="st0" d="M287.2,73.8h-1.9l5-11.1h1.7l5,11.1h-1.9l-1.3-2.7h-5.4L287.2,73.8z M291.2,64.8l-2.1,4.6h4.2L291.2,64.8z"/>
		<path class="st0" d="M309.8,76.1h-1.7v-2.4h-9.2v-11h1.8v9.5h5.6v-9.5h1.8v9.5h1.6v3.9H309.8z"/>
		<path class="st0" d="M313.2,73.8h-1.5v-11h1.8v8.1l6.3-8.1h1.6v11h-1.8v-8.1L313.2,73.8z"/>
		<path class="st0" d="M325.7,73.8h-1.5v-11h1.8v8.1l6.3-8.1h1.6v11h-1.8v-8.1L325.7,73.8z"/>
	</g>
	<g>
		<path class="st1" d="M67.5,71.6c-0.3,0-0.5,0.2-0.5,0.5c0,0.3,0.2,0.5,0.5,0.5c0.3,0,0.5-0.2,0.5-0.5C68,71.9,67.8,71.6,67.5,71.6
			z"/>
		<path class="st1" d="M69.2,76.5L69.2,76.5c0,0.3,0.2,0.5,0.5,0.5c0.3,0,0.5-0.2,0.5-0.5c0-0.3-0.2-0.5-0.5-0.5
			C69.4,76,69.2,76.2,69.2,76.5z"/>
		<path class="st1" d="M67.5,76L67.5,76c-0.3,0-0.5,0.2-0.5,0.5c0,0.3,0.2,0.5,0.5,0.5c0.3,0,0.5-0.2,0.5-0.5
			C68,76.2,67.8,76,67.5,76z"/>
		<path class="st1" d="M71.4,76.5L71.4,76.5c0,0.3,0.2,0.5,0.5,0.5c0.3,0,0.5-0.2,0.5-0.5c0-0.3-0.2-0.5-0.5-0.5
			C71.6,76,71.4,76.2,71.4,76.5z"/>
		<polygon class="st1" points="66.8,66.7 66.9,68 65.8,67.9 65.8,69.3 66.9,69.1 66.8,70.4 68.2,70.4 68.1,69.1 69.2,69.3 
			69.2,67.9 68.1,68 68.2,66.7 		"/>
		<path class="st1" d="M68.4,71.2v4.5h4.3C72.4,73.4,70.6,71.6,68.4,71.2z"/>
		<path class="st1" d="M67.5,73.8c-0.3,0-0.5,0.2-0.5,0.5c0,0.3,0.2,0.5,0.5,0.5c0.3,0,0.5-0.2,0.5-0.5C68,74,67.8,73.8,67.5,73.8z"
			/>
		<path class="st1" d="M69.3,79.5c-0.1,0-0.5,1.1-0.1,1.9c0.2,0.4,0.6,0.6,1,0.5c0.4-0.1,0.5-0.5,0.5-0.7
			C70.6,80.3,69.9,79.5,69.3,79.5z"/>
		<path class="st1" d="M65.7,79.5c-0.6,0-1.3,0.8-1.3,1.7c0,0.3,0.1,0.6,0.5,0.7c0.4,0.1,0.8-0.1,1-0.5
			C66.1,80.6,65.8,79.5,65.7,79.5z"/>
		<path class="st1" d="M67.5,78.9c-0.4,0-1.6,2.3-0.7,3.4c0.2,0.2,0.4,0.3,0.7,0.3c0.3,0,0.6-0.1,0.7-0.3
			C69,81.2,67.9,78.9,67.5,78.9z"/>
		<path class="st1" d="M62.2,76.5L62.2,76.5c0-0.5,0.1-0.9,0.1-0.9h4.3v-0.4l0-3.2l0,0v-0.9c-2.1,0.4-3.8,2-4.3,4.1
			c-0.1,0.2-0.5,0.3-0.8,0.2c-1.6-0.2-4.8-0.8-4.8-1.5c0-1,0.7-1.4,1.3-1.4c0.9,0,1.9,0.5,2.7-0.7c-2.9,0.1-0.7-4.1-3.1-4.9
			c0.1,1.1,0,3-0.4,4c0,0-0.9-0.9-1.8-1.3c0.1,0.8-0.1,2.4-0.4,3.2c0,0-1-1-2.1-1.3c1,1.4,1,3.5,0.7,4.7c-0.1,0.4,0.2,0.8,0.9,0.8
			c1.2-0.1,5.2,0.1,6.9,0.8c0.5,0.2,1,0.5,1.2,0.9c0.2,0.5,0.6,1.3,1.2,1.7c0.3-0.9,1.3-1.9,2-1.8c0.2,0,0.4,0.4,0.5,0.7
			c0.1-0.3,0.6-1.2,1.1-1.2c0.5,0,1,0.7,1.2,1.3c0.1-0.4,0.3-0.8,0.5-0.8c0.7,0,1.6,0.6,1.9,1.7c0.3-0.3,1.5-1.9,1.6-3H62.2
			C62.2,77.4,62.2,77,62.2,76.5z"/>
		<path class="st1" d="M64.8,76.5L64.8,76.5c0,0.3,0.2,0.5,0.5,0.5c0.3,0,0.5-0.2,0.5-0.5c0-0.3-0.2-0.5-0.5-0.5
			C65,76,64.8,76.2,64.8,76.5z"/>
		<path class="st1" d="M62.7,76.5L62.7,76.5c0,0.3,0.2,0.5,0.5,0.5c0.3,0,0.5-0.2,0.5-0.5c0-0.3-0.2-0.5-0.5-0.5
			C62.9,76,62.7,76.2,62.7,76.5z"/>
		<path class="st1" d="M21.3,78.7c-0.2,0.2-0.6,1.3-0.4,2c0.1,0.3,0.2,0.4,0.5,0.4c0.3,0,0.4-0.2,0.5-0.5
			C22,79.9,21.5,78.8,21.3,78.7z"/>
		<path class="st1" d="M25,81.8L25,81.8c-0.2,0.3-0.5,0.4-0.6,0.5c0.1,0.1,0.4,0.3,0.7,0.3c0.2,0,0.4-0.1,0.5-0.2
			c0.3-0.6,0-1.1-0.1-1.3C25.4,81.3,25.3,81.6,25,81.8z"/>
		<path class="st1" d="M23.6,80.4L23.6,80.4c0.4-0.4,0.5-0.7,0.4-0.9c-0.1-0.3-1-1.2-2-2.3c0,0.2-0.1,0.4-0.1,0.6c0.7,1,1,2,0.8,2.9
			c0.1,0.1,0.1,0.1,0.2,0.1C23.1,81,23.4,80.7,23.6,80.4z"/>
		<path class="st1" d="M25,80.5L25,80.5c0-0.2,0-0.3-0.1-0.4c0,0-0.1,0-0.1,0c-0.1,0-0.2,0.2-0.3,0.3c-0.1,0.1-0.2,0.3-0.4,0.5
			c-0.2,0.2-0.3,0.3-0.5,0.5c-0.2,0.1-0.3,0.3-0.3,0.4c0,0,0,0,0,0.1c0.1,0.1,0.1,0.1,0.2,0.1c0.1,0,0.4-0.1,0.9-0.6
			C24.9,80.9,25,80.7,25,80.5z"/>
		<path class="st1" d="M18.4,75.2L18.4,75.2c0,0-0.1,0.1-0.2,0.3c0.2,0,0.5,0,0.7,0.1c0-0.2,0-0.5,0-0.7
			C18.7,74.9,18.5,75.1,18.4,75.2z"/>
		<path class="st1" d="M21.1,75.5L21.1,75.5c0,0,2.1,1.8,2.8,2.5c0.2,0.2,0.4,0.2,0.6,0.1c0.1-0.1,0.3-0.1,0.5-0.2
			c2.1-0.7,5.5-0.8,6.7-0.8c0.8,0,1-0.4,0.9-0.8c-0.2-1.2-0.3-3.3,0.7-4.7c-1.1,0.4-2.1,1.3-2.1,1.3c-0.4-0.7-0.5-2.4-0.4-3.2
			c-1,0.3-1.8,1.3-1.8,1.3c-0.4-1-0.5-2.9-0.4-4c-2.4,0.8-0.2,5.1-3.1,4.9c0.8,1.2,1.8,0.7,2.7,0.7c0.6,0,1.4,0.4,1.3,1.4
			c-0.1,0.7-4,1.5-5.6,1.5c-1.1,0-1.9-0.3-2.4-1.1c-0.3-0.4-0.5-0.5-0.8-0.5c-0.4,0.1-0.8,0.4-0.8,1.4c0,0.6,0.3,2,1,2
			C21.3,77.4,21.3,76.2,21.1,75.5z"/>
		<path class="st1" d="M17.1,74.9L17.1,74.9c0.1,0,0.2,0,0.3,0c-0.3,0.4-0.3,0.7-0.2,0.8c0.2,0.2,0.3-0.2,0.8-0.7
			c0.5-0.5,0.8-0.7,0.7-0.9c-0.1-0.1-0.4-0.1-0.8,0.2c0-0.1,0.1-0.2,0-0.3c-0.2-0.5-0.9-1.1-1.4-1.1c-0.1,0-0.1,0-0.2,0
			c0.2-0.3,0.1-0.5,0-0.7c-0.1-0.1-0.2,0-0.4,0.2c0-0.1,0-0.3-0.1-0.5c-0.6-1-4-4.2-4.8-4.5c-0.5-0.2-0.6,0.1-0.6,0.1
			s-0.3,0.2-0.1,0.6c0.3,0.8,3.6,4.1,4.5,4.7c0.2,0.1,0.4,0.2,0.5,0.1c-0.2,0.2-0.3,0.2-0.1,0.4c0.1,0.1,0.3,0.2,0.6,0
			c0,0.1,0,0.1,0,0.2C16,73.9,16.6,74.7,17.1,74.9z"/>
		<path class="st1" d="M19.5,77.3c0-0.3-0.6-0.9-1.4-0.9c-1.1,0-1.6,0.7-1.6,1.1c0,0.7,0.7,0.8,0.9,0.8
			C18.1,78.3,19.4,77.5,19.5,77.3z"/>
		<path class="st1" d="M18.5,79L18.5,79c-0.3,0.4-0.4,0.8-0.3,1.1c0.1,0.4,0.5,0.6,0.9,0.6c0.4,0,0.8-0.2,1-0.5
			c0.4-0.7,0.4-2.2,0.3-2.3C20,77.9,19,78.3,18.5,79z"/>
		<path class="st1" d="M8.7,63.4L8.7,63.4c-0.3-0.3-1,0.2-1.4-0.1c0.2-1,0.9,0,1.5-0.6c0.3-0.3,0.1-0.7,0-0.8
			c-0.3,0.3-0.7,0.2-0.8,0c0.7-1.8-0.7-3.7-2.1-3.5c0.3,0.4,0.4,1.7,0.2,2c0.5,0.4,0.2,1.3-0.4,1c-0.4-0.2-1.1-1.2-0.3-1.8
			c0-0.3-0.5-0.3-0.9,0.3c0.3-1.1-1.8-0.8-2.2-0.5c-0.2,0.5-0.5,2.6,0.6,2.2c-0.6,0.5-0.5,1-0.3,1c0.7-0.8,1.6-0.2,1.8,0.2
			c0.3,0.6-0.6,1-1,0.5c-0.3,0.1-1.6,0.1-1.9-0.2c-0.2,1.4,1.8,2.9,3.5,2.1c0.2,0,0.3,0.5,0,0.8c0.1,0.2,0.6,0.3,0.8,0
			c0.7-0.7-0.3-1.4,0.6-1.6c0.2,0.4-0.2,1.1,0.1,1.4c0.5,0.5,1.1-0.5,1.8-0.5C8.3,64.5,9.2,63.9,8.7,63.4z M3.5,61.1L3.5,61.1
			c0,0-0.3-0.2,0.1-0.7c0.4-0.4,0.6-0.1,0.6-0.1s0.4,0.8,0.5,1.2C4.3,61.5,3.5,61.1,3.5,61.1z M6.7,63.6L6.7,63.6
			c-0.2,0-0.7,0.5-0.9,0.2l-1.1-1.1l0.6-0.6l0.6-0.6l1.1,1.1C7.1,62.9,6.7,63.4,6.7,63.6z"/>
		<path class="st1" d="M9,65.4L9,65.4c-0.1,0-0.2,0-0.3,0.1c-0.1,0.1-0.1,0.3-0.1,0.5c0,0.2,0.2,0.4,0.4,0.6C9.1,66.9,9.4,67,9.6,67
			c0.1,0,0.2,0,0.3-0.1c0.2-0.2,0.1-0.8-0.2-1.1C9.5,65.6,9.2,65.4,9,65.4z"/>
		<path class="st1" d="M5.8,62.1l-0.3,0.3h0l-0.3,0.3c0,0,0.6,0.8,1.1,0.5C6.6,62.7,5.8,62.1,5.8,62.1z"/>
		<path class="st1" d="M64.2,59.1c0,0.2-0.8,0.6-1.4-0.5c-0.6-0.1-1.2-0.3-1.6-0.5c0.7,1.4,1.3,2.6,2.3,3.2c1.5,0.9,3.8,0.7,4.5-0.3
			c-1.3-0.7-2.8-2.5-3.6-4.2c-0.2,0.4-0.5,1.1-0.7,1.6C63.8,58.6,64,58.9,64.2,59.1z"/>
		<polygon class="st1" points="64.3,56.7 64.3,56.7 64.3,56.7 		"/>
		<path class="st1" d="M78.1,37.2L78.1,37.2c1.6-0.7,3.9-2.3,5-3.3c0.1,0.2,0.5,1.1-0.7,2.1c-0.9,0.7-2.7,1.6-4,2.1
			c-0.6,0.9-1.8,1.9-3.4,3c3.2-0.5,7-1.8,8.9-3.6c3.5-3.5,1.7-7.7,1.2-8.7c-2.3,2.9-6.7,5.9-10.8,7.5C75.7,36.5,77.1,36.8,78.1,37.2
			z"/>
		<path class="st1" d="M75.5,30.8c2.1-1.7,4.3-5.1,4.7-6.3c0.5,0.3,0.7,1.3,0.1,2.4c-1.1,1.9-3.1,3.6-4.8,5
			c-0.1,1.2-0.6,2.7-1.2,3.8c2.5-1.7,5.4-4.2,6.7-5.9c1.7-2.2,2.4-4.4,2.1-6.6c0.1-2.5-1.7-5-2.4-5.6c-0.5,2.7-3.2,7.3-5.6,9.9
			C75.3,28.4,75.5,29.7,75.5,30.8z"/>
		<path class="st1" d="M73.9,46.6L73.9,46.6c0.5,0.6,1,1.3,1.4,1.9c1.9,0.4,4.2,0.3,4.2,0.3s-0.1,1-1.4,1.1c-0.6,0-2.4-0.3-3.1-0.5
			c-0.3,0.1-1.7,0.5-3.1,0.7c2,0.7,4.9,1.4,6.7,1.4c0.2,0,0.3,0,0.5,0c2.9-0.3,4.4-3,4.5-4.5c-0.9,0.2-2.4,0.3-3.9,0.3
			C78.3,47.3,75.8,47.2,73.9,46.6z"/>
		<path class="st1" d="M86,39c-2.6,1.4-7.2,2.8-10.9,2.8c0.9,0.6,1.8,1.2,2.4,1.8c1.5-0.1,3.6-0.6,4.8-1c0,0.2,0,1.2-1.4,1.6
			c-1,0.3-2.4,0.3-3.5,0.3c-0.9,0.6-2.2,1.1-3.3,1.5c1,0.1,2.3,0.2,3.4,0.2c1.9,0,3.7-0.2,4.8-0.6C83.3,45.3,86.6,43.9,86,39z"/>
		<path class="st1" d="M72,52.8L72,52.8c1.1,0.5,2.3,0.9,3.3,1c0,0-0.2,1-1.7,0.8c-0.9-0.1-1.9-0.8-2.1-0.9c-0.7,0.1-2.1,0.1-2.6,0
			c1.7,1.2,4.3,2.6,6.5,2.8c0.1,0,0.2,0,0.3,0c2.3,0,4.1-2.3,4.6-3.4c-2.3,0-6.3-1-8.7-2.3C71.7,51.2,71.9,52,72,52.8z"/>
		<path class="st1" d="M68,55.9c0.6,0.7,1.6,1.1,1.6,1.1s-0.3,0.5-0.9,0.5c-0.2,0-0.4-0.1-0.6-0.2c-0.4-0.2-1-0.9-1-0.9
			c-0.8-0.1-1.5-0.2-2.2-0.4c1.2,1.5,3.2,3.4,5.4,3.9c0.3,0.1,0.6,0.1,1,0.1c1.9,0,3.5-1.4,3.9-2.3c-2.2-0.3-5.4-2-7-3.6
			C68.2,54.7,68.1,55.4,68,55.9z"/>
		<path class="st1" d="M53.7,80.4L53.7,80.4c1.1,0,1.8-0.4,2.3-1.5c-1.5,0.7-3.1,0.3-6.1-0.6c0,0-1.1,0.5-1.8,0.6
			c1.8,0.5,4.4,1.4,4.8,2.4c0.2,0.8-0.3,1-0.3,1c-1-1.2-2.2-1.9-4.8-2.7c0,0.5-0.1,0.8-0.1,0.8s-0.5,0.1-1.7-0.1
			c1,0.8,3.4,2.9,3.7,5.1c0.2,1.5-0.9,1.6-0.9,1.6c-0.1-2.3-1.1-3.7-3.3-6c0,0-0.4,0.5-0.8,0.8c0,0-0.8-0.1-1.4-0.6
			c0.3,3,0.4,10.2,0.2,11.3c-0.1,0.8-0.6,1.2-0.6,1.2l0,0l0,0c0,0-0.5-0.3-0.6-1.2c-0.2-1.2,0-8.4,0.2-11.3
			c-0.7,0.4-1.4,0.6-1.4,0.6c-0.5-0.3-0.8-0.8-0.8-0.8c-2.1,2.3-3.1,3.8-3.3,6c0,0-1-0.1-0.9-1.6c0.3-2.2,2.7-4.3,3.7-5.1
			c-1.1,0.2-1.7,0.1-1.7,0.1s-0.1-0.3-0.1-0.8c-2.6,0.8-3.7,1.5-4.8,2.7c0,0-0.5-0.1-0.3-1c0.4-1,3-1.8,4.8-2.4
			c-0.6-0.1-1.8-0.6-1.8-0.6c-2.9,0.9-4.6,1.3-6.1,0.6c0.4,1.1,1.2,1.5,2.3,1.5l0,0c-1.4,0.5-2.7,1.9-3.1,3.3c1,3.7,4.2,4.8,4.2,4.8
			c-0.8-1.8-0.5-5.3,4.3-7.7c-2.9,2.9-4.1,5.6-3.3,8.1c0.7,2.3,3.1,3.2,4.8,3.3c-1.2-3.8-0.7-7.3,1.9-10c-1.1,3-2.7,12.3,1.8,13.8
			c0,0,0,0,0,0c0,0,0,0,0,0c4.5-1.5,2.9-10.8,1.8-13.8c2.6,2.8,3.1,6.2,1.9,10c1.8,0,4.1-1,4.8-3.3c0.8-2.5-0.3-5.2-3.3-8.1
			c4.8,2.4,5.1,6,4.3,7.7c0,0,3.2-1.1,4.2-4.8C56.4,82.3,55,81,53.7,80.4z"/>
		<path class="st1" d="M22.7,61.3c1-0.6,1.6-1.8,2.3-3.2c-0.4,0.2-1,0.4-1.6,0.5c-0.6,1.1-1.4,0.7-1.4,0.5c0.2-0.2,0.4-0.5,0.5-0.7
			c-0.2-0.5-0.5-1.2-0.7-1.6c-0.8,1.8-2.4,3.5-3.6,4.2C18.9,62,21.2,62.2,22.7,61.3z"/>
		<polygon class="st1" points="21.8,56.7 21.8,56.7 21.8,56.7 		"/>
		<path class="st1" d="M11.1,41.1c-1.7-1.1-2.8-2.1-3.4-3c-1.4-0.5-3.2-1.4-4-2.1c-1.2-1-0.8-1.9-0.7-2.1C4,35,6.3,36.5,8,37.2l0,0
			c1-0.4,2.4-0.7,3.8-0.9C7.7,34.8,3.3,31.7,1,28.9c-0.5,0.9-2.4,5.2,1.2,8.7C4,39.3,7.9,40.6,11.1,41.1z"/>
		<path class="st1" d="M11.8,35.6c-0.6-1.1-1.1-2.5-1.2-3.8c-1.7-1.3-3.6-3-4.8-5c-0.6-1.1-0.4-2.1,0.1-2.4c0.4,1.2,2.6,4.6,4.7,6.3
			c0-1.1,0.2-2.4,0.5-3.3c-2.4-2.6-5.2-7.2-5.6-9.9c-0.7,0.6-2.5,3.1-2.4,5.6c-0.3,2.2,0.4,4.4,2.1,6.6C6.4,31.4,9.3,34,11.8,35.6z"
			/>
		<path class="st1" d="M10.8,48.5c0.3-0.6,0.9-1.3,1.4-1.9h0c-1.9,0.5-4.4,0.6-5.7,0.6c-1.6,0-3.1-0.1-3.9-0.3
			c0.1,1.6,1.6,4.3,4.5,4.5c0.2,0,0.3,0,0.5,0c1.8,0,4.7-0.7,6.7-1.4c-1.4-0.2-2.8-0.5-3.1-0.7C10.4,49.7,8.6,50,8,49.9
			c-1.3-0.1-1.4-1.1-1.4-1.1S8.9,48.9,10.8,48.5z"/>
		<path class="st1" d="M3.8,45.7c1.1,0.4,2.8,0.6,4.8,0.6c1.2,0,2.4-0.1,3.4-0.2c-1.1-0.4-2.4-0.9-3.3-1.5c-1.1,0-2.6-0.1-3.5-0.3
			c-1.4-0.4-1.4-1.4-1.4-1.6c1.2,0.5,3.3,1,4.8,1c0.6-0.5,1.4-1.2,2.4-1.8c-3.6,0-8.3-1.4-10.9-2.8C-0.5,43.9,2.8,45.3,3.8,45.7z"/>
		<path class="st1" d="M10.5,56.4c0.1,0,0.2,0,0.3,0c2.2-0.2,4.8-1.6,6.5-2.8c-0.5,0.1-2,0.1-2.6,0c-0.2,0.2-1.3,0.8-2.1,0.9
			c-1.6,0.2-1.7-0.8-1.7-0.8c1-0.1,2.2-0.5,3.3-1v0c0.1-0.8,0.3-1.6,0.5-2.1C12.2,52,8.2,53,5.9,53C6.4,54.1,8.2,56.4,10.5,56.4z"/>
		<path class="st1" d="M14.8,60c0.3,0,0.7,0,1-0.1c2.1-0.5,4.2-2.4,5.4-3.9c-0.7,0.2-1.4,0.4-2.2,0.4c0,0-0.5,0.6-1,0.9
			c-0.2,0.1-0.4,0.2-0.6,0.2c-0.6,0-0.9-0.5-0.9-0.5s1-0.5,1.6-1.1c-0.1-0.5-0.2-1.2-0.2-1.8c-1.7,1.7-4.8,3.3-7,3.6
			C11.3,58.6,12.8,60,14.8,60z"/>
		<path class="st1" d="M42.2,5.3L42.2,5.3c0,0.5,0.4,0.8,0.8,0.8c0.4,0,0.8-0.4,0.8-0.8c0-0.5-0.4-0.8-0.8-0.8
			C42.6,4.4,42.2,4.8,42.2,5.3z"/>
		<polygon class="st1" points="42.5,3.5 42.5,3.5 43.6,3.5 43.5,2.1 44.7,2.3 44.7,1.2 43.5,1.3 43.6,0 42.5,0 42.6,1.3 41.4,1.2 
			41.4,2.3 42.6,2.1 		"/>
		<path class="st1" d="M38.6,16.7L38.6,16.7c0.1,0,0.3,0.1,0.4,0.1h8c0.2,0,0.3,0,0.4-0.1c0.3-0.1,0.4-0.3,0.5-0.6h-9.8
			C38.2,16.5,38.4,16.6,38.6,16.7z"/>
		<path class="st1" d="M47.4,15.5c0.1,0,0.1-0.1,0.1-0.1v-0.6c0-0.1-0.1-0.1-0.1-0.1h-8.7c-0.1,0-0.1,0.1-0.1,0.1v0.6
			c0,0.1,0.1,0.1,0.1,0.1H47.4z"/>
		<path class="st1" d="M48.3,14c0.2-0.3,1.3-2.4,1.3-4.6c0-2-2.5-3.1-3.9-3.1c-0.2,2.8-1.3,7.2-2.7,7.2c-1.3,0-2.5-4.4-2.7-7.2
			c-1.5,0-3.9,1.1-3.9,3.1c0,2.2,1.1,4.4,1.3,4.6H48.3z"/>
		<path class="st1" d="M43,12.1c0.7,0,1.5-2.1,1.8-4.2c0-0.4-0.7-1-1.8-1.1c-1.1,0-1.8,0.6-1.8,1.1C41.5,9.8,42.4,12.1,43,12.1z"/>
		<polygon class="st1" points="59.6,21.2 59.6,21.2 59.6,21.2 		"/>
		<path class="st1" d="M55.7,44.9c0-0.3-0.2-0.5-0.5-0.5H30.9c-0.3,0-0.5,0.2-0.5,0.5v16.7v0.1l0,0.1c0,0,0,0,0,0c0,0,0,0.9,0.4,1.9
			c0.5,1.2,2.6,3.2,5.2,4.6c3.7,1.9,5.9,3.4,7,4.3c1.1-0.9,3.3-2.4,7-4.3c2.7-1.4,4.7-3.4,5.2-4.6c0.5-1.1,0.4-1.9,0.4-1.9
			L55.7,44.9z M47.5,51l0,0.1c0.3,1.2,0.6,2.5,0.7,3.7c1,0.8,1.9,1.6,2.7,2.4c1.5-1.7,2.3-3.3,2.3-4.6c0,0,0,0,0,0
			c-0.7,0-1.3-0.6-1.3-1.3c0-0.3,0.1-0.5,0.2-0.7c-0.7-0.3-1.5-0.4-2.2-0.4c-0.6,0-1.2,0.1-1.9,0.2c0,0-0.1,0-0.1,0l-0.2,0.1
			l0.1-0.1c0.1-0.2,0.1-0.3,0.2-0.5l0,0l0,0c2-0.4,3.6-0.2,4.6,0.4c0.2-0.1,0.4-0.2,0.6-0.2c0.7,0,1.3,0.6,1.3,1.3
			c0,0.5-0.3,0.9-0.7,1.1c0,1.4-0.8,3.2-2.5,5.2c0.1,0.1,0.2,0.2,0.3,0.3c0.1,0.1,0.1,0.1,0.2,0.2l0,0.1l0,0
			c-0.1,0.1-0.2,0.2-0.3,0.3l0,0l-0.1,0c0,0,0,0-0.1,0l0,0c-0.1-0.1-0.1-0.1-0.1-0.2c-0.1-0.1-0.1-0.2-0.2-0.3
			c-0.2,0.2-0.4,0.4-0.6,0.6L50.2,59c-0.3,0.2-0.6,0.3-0.8,0.2l-0.1,0l0.1-0.1c0.5-0.4,0.9-0.9,1.3-1.2c-0.6-0.7-1.4-1.4-2.2-2.1
			c0.1,0.7,0.1,1.4,0.1,2.1c0,0.6,0,1.3-0.1,2l0,0l0,0c-0.1,0.1-0.3,0.2-0.4,0.3l-0.1,0.1l0-0.1c0.1-0.8,0.1-1.6,0.1-2.3
			c0-0.2,0-0.5,0-0.7l0-0.2l0,0c0-0.5-0.1-1.9-0.2-2.8c0,0,0,0,0,0l0,0l0,0c-0.1-0.8-0.3-1.6-0.5-2.4l0-0.1l0,0c0,0,0,0,0,0l0,0
			c0.1-0.1,0.2-0.2,0.3-0.3L47.5,51z M39.3,49.2c1-2.4,2.4-3.7,3.8-3.7c1.4,0,2.8,1.3,3.8,3.7l0,0.1l-0.1,0c-0.1,0-0.2,0.1-0.4,0.2
			l-0.1,0l0-0.1c-0.9-2.1-2.1-3.3-3.3-3.3c-1.2,0-2.4,1.2-3.3,3.3l0,0.1l-0.1,0C39.5,49.3,39.3,49.3,39.3,49.2L39.3,49.2L39.3,49.2z
			 M38.9,49.8c0.3,0.2,1.2,0.7,2.2,0.4c0.9-0.3,1.9-0.3,1.9-0.3s1.1,0,1.9,0.3c1,0.3,1.9-0.2,2.2-0.4c0.1,0,0.1,0,0.1,0.1
			c-0.1,0.4-0.4,1.4-1.9,1.8c-1.4,0.3-2.1,1.9-2.3,2.6c0,0.1-0.1,0.1-0.2,0c-0.2-0.7-0.9-2.3-2.3-2.6c-1.5-0.3-1.8-1.4-1.9-1.8
			C38.8,49.8,38.9,49.8,38.9,49.8z M41.3,53.8c0.2,0,0.5-0.1,0.7-0.2c0.1,0.2,0.2,0.5,0.3,0.7c-0.3,0.2-0.6,0.3-1,0.3
			c-1.1,0-1.9-0.9-1.9-1.9c0-0.3,0.1-0.5,0.2-0.7c0.2,0.1,0.4,0.2,0.7,0.3c-0.1,0.1-0.1,0.3-0.1,0.4C40.1,53.3,40.7,53.8,41.3,53.8z
			 M40.8,52.6c0-0.1,0-0.1,0-0.2c0.3,0.1,0.6,0.4,0.8,0.6c-0.1,0.1-0.2,0.1-0.3,0.1C41,53.1,40.8,52.9,40.8,52.6z M41.3,55.2
			c0.4,0,0.9-0.1,1.3-0.4c0.1,0.1,0.3,0.5,0.4,0.5c0.2,0,0.3-0.4,0.4-0.5c0.4,0.2,0.9,0.4,1.3,0.4c0.7,0,1.3-0.3,1.8-0.7
			c0,0,0,0,0,0.1c0.2,0.8,0.3,1.8,0.2,2.2c0,0.4-0.2,0.8-0.3,1.2c-0.2,0.5-0.3,0.9-0.3,0.9c0,0,0,0.1-0.1,0.3
			c-0.1,0.4-0.4,1.1-0.8,1.8c-0.8-0.5-1.6-0.7-2.6-0.7c-0.9,0-1.7,0.2-2.4,0.6c-0.3-0.7-0.6-1.3-0.7-1.6c-0.1-0.2-0.1-0.3-0.1-0.3
			c0,0-0.2-0.4-0.4-1c-0.1-0.3-0.2-0.7-0.2-1.1c0-0.3-0.1-1.3,0.2-2.2c0-0.1,0.1-0.2,0.1-0.3C39.8,54.8,40.6,55.2,41.3,55.2z
			 M44.8,53.8c0.7,0,1.2-0.5,1.2-1.2c0-0.2,0-0.3-0.1-0.4c0.2-0.1,0.5-0.2,0.7-0.3c0.1,0.2,0.2,0.5,0.2,0.7c0,1.1-0.9,1.9-1.9,1.9
			c-0.4,0-0.7-0.1-1-0.3c0.1-0.2,0.2-0.4,0.3-0.7C44.3,53.7,44.6,53.8,44.8,53.8z M44.5,53c0.2-0.3,0.5-0.5,0.8-0.6
			c0,0.1,0,0.1,0,0.2c0,0.3-0.2,0.5-0.5,0.5C44.7,53.1,44.6,53.1,44.5,53z M32.9,50.2c0.3,0,0.5,0.1,0.7,0.2
			c0.7-0.4,1.5-0.6,2.6-0.6c0.6,0,1.2,0.1,1.9,0.2l0.1,0l0,0c0,0.1,0.1,0.3,0.2,0.5l0.1,0.1l-0.2-0.1c-0.1,0-0.1,0-0.2,0
			c-0.6-0.1-1.2-0.2-1.8-0.2c-0.7,0-1.6,0.1-2.2,0.5c0.1,0.2,0.2,0.4,0.2,0.7c0,0.7-0.6,1.3-1.3,1.3c0,1.2,0.8,2.8,2.3,4.6
			c0.8-0.8,1.7-1.7,2.7-2.4c0.1-1.2,0.4-2.5,0.7-3.7l0-0.1l0.1,0.1c0.1,0.1,0.2,0.2,0.3,0.3c0,0,0,0,0.1,0.1l0,0v0.1
			c-0.2,0.8-0.4,1.5-0.5,2.3l0,0.1l0,0c-0.1,0.6-0.2,1.4-0.2,2.2c0,0.6-0.1,1.1-0.1,1.5c0,0.6,0,1.2,0.1,2l0,0.1l-0.1,0
			c-0.2-0.1-0.3-0.1-0.4-0.1l-0.1,0l0-0.1c0-0.5-0.1-1.2-0.1-1.9c0-0.7,0-1.4,0.1-2.1c-0.8,0.7-1.6,1.4-2.2,2.1
			c0.5,0.6,1.2,1.2,2,1.9l0.1,0.1l-0.1,0c-0.2,0.1-0.5,0.1-0.7,0l0,0c-0.6-0.6-1.1-1-1.6-1.5c-0.1,0.1-0.2,0.2-0.2,0.3l-0.1,0.1l0,0
			c-0.1,0-0.2,0.1-0.4,0.2l0,0l0,0c0,0-0.1-0.1-0.1-0.1c0,0-0.1,0-0.1-0.1l-0.1,0l0-0.1c0.2-0.3,0.4-0.5,0.6-0.7
			c-1.7-1.9-2.5-3.7-2.5-5.1c-0.4-0.2-0.7-0.6-0.7-1.1C31.6,50.8,32.2,50.2,32.9,50.2z M47.1,65.7c-0.7,2-1.7,3.4-2.8,4
			c-0.1,0.6-0.6,1.1-1.2,1.1c-0.6,0-1.1-0.5-1.2-1.1c-1.1-0.6-2.1-1.9-2.8-3.9l0-0.1l0.6-0.2l0,0.1c0.6,1.7,1.4,2.9,2.3,3.5
			c0.2-0.5,0.6-0.9,1.2-0.9c0.6,0,1,0.4,1.2,0.8c0.9-0.6,1.7-1.8,2.3-3.4l0-0.1l0.1,0C46.8,65.6,46.9,65.6,47.1,65.7L47.1,65.7
			L47.1,65.7z M42,65.6c0-0.4,0.1-1.5,0.3-1.9c0.2-0.1,0.5-0.2,0.8-0.2c0.3,0,0.6,0.1,0.9,0.3c0.1,0.4,0.3,1.4,0.3,1.8
			c0,0.4-1,0.7-1.1,0.8C42.9,66.3,42,66.1,42,65.6z M54.8,61.6c-0.1,0.1-0.2,0.2-0.3,0.2c0,0,0,0,0,0c-0.1,0-0.2,0.1-0.4,0.1l-0.1,0
			c-0.2,0-0.4,0-0.5-0.1c-0.1,0-0.1-0.1-0.2-0.1c0,0,0,0,0,0c0,0,0,0,0,0c-0.3,0-1,0.2-1.2,0.3c0.1,0,1,0.1,1.6,0.6
			c0.3,0.2,0.9,0.3,1.1,0.3c0,0.1-1,0.8-2.9,0.4l-0.5-0.1c-0.9-0.2-1.7-0.3-2.6-0.3c0.1,0,0.2,0.1,0.2,0.1c0.2,0.1,0.5,0.2,0.7,0.3
			c0,0,0.1,0,0.1,0.1c0,0,0.1,0,0.1,0c0.1,0,0.2,0,0.2,0.1c0.1,0,0.2,0.1,0.3,0.1c0.1,0.1,0.3,0.2,0.3,0.3c0,0.1,0.1,0.1,0.1,0.2
			c0,0,0,0,0,0c0,0.2,0,0.3-0.1,0.5c-0.3,0.4-0.7,0.4-1.1,0c0,0-0.1-0.1-0.1-0.1c-0.1-0.1-0.2-0.2-0.3-0.4c0,0,0-0.1,0-0.1
			c0,0,0,0-0.1,0c-0.2-0.1-0.3-0.3-0.5-0.3c-0.3-0.1-0.7-0.2-1-0.3c-0.1,0-0.2,0-0.3,0c0.3,0.2,0.6,0.4,0.7,0.6c0,0,0,0,0,0.1
			c0.2,0.3,0.2,0.6,0.3,0.9c0.3,0.6,0.4,0.7,0.7,0.9c-0.3,0.1-1.8,0.1-2.5-1c0,0-0.1-0.1-0.1-0.2c-0.2-0.4-0.3-0.8-0.4-1.1
			c-0.1-0.3,0.1-0.6-0.1-0.7c-0.2-0.1-0.3,0-0.3,0c0,0,0,0,0,0c0,0,0,0,0,0c0,0,0,0,0,0c0,0,0,0,0,0l0,0c0,0,0,0,0,0l0,0
			c-0.1,0.1-0.1,0.1-0.1,0.1l0,0.1c0,0.1-0.1,0.1-0.1,0.1c0,0,0,0.1,0,0.1c0,0,0,0.1-0.1,0.1c0,0,0,0-0.1,0c-0.1,0-0.1,0-0.2,0
			c0,0,0,0-0.1,0c0,0-0.1,0-0.1,0.1c-0.1,0-0.2,0.1-0.3,0.1c-0.1,0-0.2-0.1-0.2-0.2c0-0.1,0-0.1,0-0.2l0,0c-0.1,0-0.1,0-0.2,0
			c-0.1,0-0.1,0-0.2-0.1c0-0.1,0-0.2,0-0.2c0-0.1,0-0.1,0-0.1c-0.1,0.1-0.1,0.1-0.2,0.1c-0.1,0-0.1,0-0.2,0c-0.1,0-0.1-0.1-0.1-0.2
			l0-0.1c0,0,0,0,0,0c0,0,0,0,0-0.1c0,0,0,0,0,0c0,0,0,0-0.1,0l-0.1,0c0,0,0,0,0,0c-0.1,0-0.3-0.1-0.4-0.1c0,0,0,0-0.1,0
			c0,0,0,0,0,0c-0.1,0-0.3,0.1-0.4,0.1c0,0,0,0,0,0l-0.1,0c0,0-0.1,0-0.1,0c0,0,0,0,0-0.1l0,0c0,0,0,0,0-0.1c0,0,0,0,0,0
			c0,0,0.1-0.1,0.1-0.1c0,0,0,0,0-0.1c0,0,0,0,0,0c-0.1,0-0.1,0-0.2,0c0,0,0,0.1,0,0.1c0,0,0,0-0.1,0c0,0,0,0.1,0,0.1l0,0.1
			c0,0,0,0,0,0l0,0c0,0.1,0,0.2-0.1,0.2c-0.1,0.1-0.1,0.1-0.2,0c0,0-0.1,0-0.1-0.1c0,0-0.1,0-0.1-0.1c0,0,0,0,0,0c0,0,0,0,0,0
			c0,0,0,0,0,0c0,0,0,0,0,0c0,0,0,0,0,0c0,0,0,0,0,0c0,0,0,0,0,0c0,0,0,0,0,0l0,0c0,0,0,0,0,0c0,0,0,0.1,0.1,0.1c0,0.1,0,0.1,0,0.2
			c-0.1,0.1-0.1,0.1-0.2,0.1c0,0-0.1,0-0.1,0c0,0-0.1,0-0.1,0c0,0.1,0.1,0.1,0,0.2c0,0.1-0.1,0.1-0.2,0.1c-0.1,0-0.1,0-0.2,0
			c0,0,0,0-0.1,0c0,0-0.1,0-0.1,0c0,0-0.1-0.1-0.1-0.1c0,0-0.1,0-0.2,0c0,0-0.1,0-0.1-0.1c0,0-0.1-0.1-0.1-0.1l0,0c0,0,0,0,0,0
			c0,0,0,0,0,0c0,0,0-0.1,0-0.1l0,0c-0.2-0.2-0.5,0.5-0.5,0.5c-0.9,1.9-3.1,2.3-3.1,2.2c0,0,0.5-0.2,0.7-0.9
			c0.1-0.4,0.1-0.5,0.3-0.9c0-0.1,0.1-0.1,0.1-0.2c0.1-0.2,0.4-0.3,0.6-0.5c0,0,0,0,0,0c-0.1,0-0.2,0-0.3,0c-0.3,0.1-0.6,0.1-1,0.3
			c-0.2,0.1-0.3,0.2-0.5,0.3c0,0,0,0-0.1,0c0,0,0,0.1,0,0.1c0,0.1-0.1,0.2-0.2,0.4c0,0-0.1,0.1-0.1,0.1c0,0,0,0,0,0
			c-0.4,0.4-0.7,0.4-1.1,0c0,0-0.1-0.1-0.1-0.1c-0.1-0.1-0.1-0.3,0-0.4c0-0.1,0.1-0.2,0.2-0.3c0.1-0.1,0.2-0.1,0.3-0.2
			c0.1-0.1,0.2-0.1,0.3-0.1c0.1,0,0.1,0,0.2-0.1c0,0,0.1,0,0.2,0c0,0,0-0.1,0.1-0.1c0.1,0,0.2-0.1,0.3-0.1c0.1,0,0.2-0.1,0.3-0.1
			c0,0,0.1,0,0.2-0.1c-0.8,0-1.6,0.1-2.5,0.3c-0.1,0-0.3,0.1-0.5,0.1c-1,0.2-2.9-0.3-2.9-0.4c0-0.1,0.5-0.1,1-0.4
			c0.4-0.2,0.6-0.4,0.9-0.5C33.3,62,33.9,62,34,62c-0.2-0.1-1.1-0.2-1.4-0.3c0,0,0,0,0,0c0,0,0,0,0,0c0,0,0,0,0,0
			c0,0-0.1,0.1-0.2,0.1c-0.2,0.1-0.4,0.1-0.6,0.1c-0.1,0-0.3,0-0.4-0.1c0,0,0,0,0,0c-0.1,0-0.2-0.1-0.3-0.2
			c-0.1-0.1-0.1-0.2-0.1-0.5c0.1-0.4,0.5-0.6,1-0.5c0.3,0.1,0.5,0.2,0.6,0.3c0,0,0.1,0.1,0.1,0.1c0,0,0,0,0,0c0.3,0,0.7,0.2,1.1,0.3
			c0.4,0.2,0.7,0.3,0.9,0.3c-0.1,0-0.2-0.1-0.3-0.1c-0.1,0-0.2-0.1-0.2-0.1c-0.1-0.1-0.2-0.1-0.3-0.2c-0.6-0.3-1.2-0.6-1.6-1
			c-0.3-0.4-0.4-0.6-0.5-1c-0.1-0.9-0.5-1.3-0.5-1.4c0.1-0.1,1.5,0.6,2,1.1c0.3,0.4,0.4,0.7,0.5,1l0,0.1c0.1,0.3,0.4,0.6,0.9,0.9
			c0.1,0,0.1,0.1,0.2,0.1c-0.1-0.2-0.2-0.3-0.3-0.5c0,0,0-0.1,0-0.1c0,0-0.1-0.1-0.1-0.1c0,0-0.1-0.1-0.1-0.2
			c-0.1-0.1-0.1-0.2-0.2-0.3c-0.1-0.3-0.1-0.6,0-0.7c0.1-0.1,0.2-0.2,0.4-0.3c0.4-0.1,0.7,0.1,0.8,0.7c0,0.1,0,0.2,0,0.3
			c0,0.1,0,0.2,0,0.3c0,0,0,0.1,0,0.1c0,0,0,0,0,0.1c0.2,0.6,0.7,1.1,1.3,1.5c-0.7-0.6-1.1-2-1-2c0.1-0.1,0.7,0.3,1.3,0.6
			c0.3,0.1,0.6,0.3,0.9,0.5c0.2,0.1,0.4,0.3,0.5,0.4c0.2,0.1,0.3,0.3,0.4,0.4l0,0c0.1,0.1,0.2,0.2,0.3,0.3c0.1,0.1,0.1,0.1,0.2,0.2
			c0.2,0.1,0.5,0,0.5,0c0.1,0,0.2,0,0.3-0.1c0,0,0,0,0,0c0,0,0,0,0.1-0.1c0.1-0.1,0.2-0.1,0.3-0.1c0,0,0-0.1,0-0.1
			c0-0.2,0.1-0.3,0.3-0.4c0,0,0.1,0,0.1-0.1c0,0,0.1,0,0.1,0c0,0,0.1,0,0.1,0c0,0,0.1,0,0.1,0c0-0.1,0.1-0.1,0.2-0.2c0,0,0,0,0,0
			c0.2-0.1,0.5-0.1,0.7,0.1c0.1,0.1,0.1,0.2,0.2,0.3c0,0,0,0.1,0,0.1c0,0.1,0,0.1,0,0.2c0,0.1,0,0.1,0,0.2c0,0,0,0,0,0
			c0.1,0,0.3,0,0.4,0c0,0,0,0,0,0c0,0,0,0,0,0c0,0,0,0,0,0c0.1,0,0.1,0,0.2,0c0.1,0,0.2,0,0.3,0.1c0,0,0,0,0,0
			c0.1,0,0.2-0.1,0.3-0.1c0.1,0,0.1,0,0.2,0c0,0,0,0,0,0c0,0,0,0,0,0c0,0,0,0,0,0c0,0,0.1,0,0.1,0c0-0.1,0-0.2,0-0.3
			c0-0.1,0-0.2,0.1-0.3c0,0,0-0.1,0.1-0.1c0,0,0,0,0,0c0,0,0.1-0.1,0.1-0.1c0.2-0.1,0.4-0.1,0.6,0c0,0,0,0,0,0
			c0.1,0,0.1,0.1,0.2,0.2c0.1,0,0.1,0,0.2,0c0,0,0.1,0,0.1,0c0,0,0.1,0,0.1,0c0,0,0,0,0,0c0.2,0.1,0.3,0.2,0.3,0.4c0,0,0,0,0,0
			c0,0,0,0,0.1,0c0,0,0,0,0,0c0,0,0.1,0,0.1,0c0,0,0,0,0,0c0,0,0,0,0,0c0,0,0.5,0,0.6,0.1l0.5,0c0.1-0.1,0.1-0.1,0.2-0.2
			c0.1-0.1,0.3-0.3,0.4-0.4c0.2-0.1,0.3-0.3,0.5-0.4c0.3-0.2,0.7-0.3,1-0.4c1-0.4,1.1-1,1.2-1c0.1,0.1-0.2,1.7-0.9,2.3
			c0.5-0.4,1-0.9,1.3-1.5c0,0,0,0,0-0.1c0,0,0-0.1,0-0.1c0-0.1,0-0.2,0-0.3c0-0.1,0-0.2,0-0.3c0.2-0.5,0.4-0.8,0.8-0.7
			c0.2,0.1,0.3,0.2,0.4,0.3c0.1,0.2,0.1,0.4,0,0.7c0,0.1-0.1,0.2-0.2,0.3c-0.1,0.1-0.1,0.1-0.2,0.2c0,0-0.1,0.1-0.1,0.1
			c0,0,0,0.1,0,0.1c-0.1,0.2-0.2,0.3-0.4,0.5c0.1-0.1,0.1-0.1,0.2-0.2c0.5-0.4,0.8-0.7,0.9-1c0.1-0.3,0.2-0.6,0.5-1
			c0.5-0.5,0.6-0.7,1.1-1c0.1-0.1,0.8-0.2,0.9-0.2c0.1,0.1-0.5,0.3-0.7,1.3c-0.1,0.3-0.2,0.8-0.5,1.2c-0.4,0.5-0.8,0.6-1.3,0.9
			l-0.1,0.1c-0.1,0.1-0.2,0.1-0.4,0.2c-0.2,0.1-0.3,0.2-0.4,0.2c0.3-0.1,0.6-0.2,1-0.3c0.3-0.2,0.7-0.3,1.1-0.3c0,0,0,0,0,0
			c0,0,0-0.1,0.1-0.1c0.1-0.1,0.3-0.2,0.6-0.3c0.5-0.2,0.9,0,1,0.5C55,61.3,54.9,61.5,54.8,61.6z"/>
		<polygon class="st1" points="44.1,61.4 44.1,61.4 44.1,61.4 		"/>
		<path class="st1" d="M72.3,41.5c1.5-0.7,4-2.4,5-3.6c-1.4-0.5-4.2-0.8-5.8-0.8c3.3-2.3,3.4-7.1,2.5-10.6c-0.8,2.8-2.8,5.1-4.1,6.5
			c0.1,1.4-0.3,3.8-1.1,5.2c1.1,0.4,2.4,1,3.3,1.7c-0.6,0.8-1.9,1.9-2.7,2.6c0.7,0.7,1.8,2,2.4,2.8c-0.8,0.6-2.4,1.2-3.3,1.5
			c0.4,0.9,1,2.4,1.2,3.5c-1,0.2-2.3,0.3-3.7,0.3c0.1,1-0.1,2.6-0.3,3.6c-1.3-0.1-2.8-0.6-3.5-1c-0.4,1.4-1.3,2.8-1.3,2.9
			c-1.2-1.4-2.4-1.9-3.5-1.9v-0.9c1.1,0,2.3,0.4,3.2,1.3c0.4-0.7,0.8-2,1-2.8c0.8,0.4,2.1,0.9,3.2,1.1c0.1-1,0.2-2.3,0.1-3.3
			c1.1,0.1,2.3,0.1,3.6-0.1c-0.2-0.9-1-2.4-1.5-3.2c1.1-0.3,2.5-0.9,3.2-1.3c-0.6-0.8-1.6-1.9-2.3-2.6c0.8-0.6,2.1-1.6,2.6-2.2
			c-0.9-0.6-2.1-1.2-3.1-1.6c1.4-1.9,1.7-5.8,1.4-7.6l0,0c-1.2,4.1-4.8,7.1-7,8.5c-0.1,0.1-0.2,0.2-0.3,0.2l0,0c0,0,0,0,0,0
			c0,0,0,0,0,0c-0.1,0.1-0.5,0.6-0.3,1.2c0,0.2,0.1,0.3,0.1,0.5c0.2,0.8,0.2,2-1,3.1c-1,0.9-2.2,1-2.9,0.9l0-2.2
			c0-0.3-0.2-0.5-0.5-0.5h-1.5l-0.7-0.7c0,0,0.7,0,1.5,0c0.8-0.1,1.7-0.5,1.7-0.5s-0.9,0-1.3-0.1C56.1,41.5,55,41,54.1,40
			c-0.3-0.4-0.6-0.8-0.8-1.2c-0.8-0.7-1.7-1.6-2.3-2.9c-0.4-0.9-0.6-2.2-0.7-3c-0.3,0.2-0.6,0.6-1,1.1c-0.7,0.9-1,2.2-1,2.2l-0.3,1
			l-0.5-0.9c0,0-0.7-1.2-0.8-2.7c0-0.7,0-1.3,0.1-1.8c-0.2,0.1-0.5,0.3-0.8,0.5c-1.2,0.9-1.9,1.8-1.9,1.8c-0.6,0.8-1,1.5-1.1,1.8
			c-0.1-0.4-0.5-1-1.1-1.8c0,0-0.6-1-1.9-1.8c-0.3-0.2-0.6-0.4-0.8-0.5c0.1,0.5,0.1,1.2,0.1,1.8c-0.1,1.5-0.8,2.6-0.8,2.7L38,37.1
			l-0.3-1c0,0-0.4-1.3-1-2.2c-0.4-0.5-0.7-0.9-1-1.1c-0.1,0.8-0.3,2.2-0.7,3c-0.6,1.3-1.4,2.3-2.3,2.9c-0.2,0.4-0.5,0.8-0.8,1.2
			c-0.9,1-2,1.5-2.5,1.6c-0.4,0.1-1.3,0.1-1.3,0.1s0.9,0.4,1.7,0.5c0.8,0.1,1.5,0,1.5,0l-0.7,0.7h-1.5c-0.3,0-0.5,0.2-0.5,0.5l0,2.2
			c-0.7,0.1-2,0-2.9-0.9c-1.1-1.1-1.2-2.3-1-3.1c0.1-0.1,0.1-0.3,0.1-0.5c0.2-0.6-0.2-1.1-0.3-1.2c0,0,0,0,0,0c0,0,0,0,0,0l0,0
			c-0.1-0.1-0.2-0.2-0.3-0.2c-2.2-1.4-5.7-4.4-7-8.5l0,0c-0.3,1.8,0.1,5.6,1.4,7.6c-1,0.4-2.3,1-3.1,1.6c0.5,0.6,1.8,1.7,2.6,2.2
			c-0.7,0.6-1.8,1.8-2.3,2.6c0.7,0.4,2.1,1,3.2,1.3c-0.5,0.8-1.3,2.3-1.5,3.2c1.2,0.2,2.5,0.2,3.6,0.1c-0.1,1,0,2.4,0.1,3.3
			c1.1-0.2,2.4-0.6,3.2-1.1c0.2,0.7,0.6,2.1,1,2.8c0.9-0.9,2.1-1.3,3.2-1.3v0.9c-1.1,0-2.3,0.5-3.5,1.9c0-0.1-0.9-1.5-1.3-2.9
			c-0.7,0.3-2.2,0.9-3.5,1c-0.2-1-0.3-2.6-0.3-3.6c-1.4,0-2.7-0.1-3.7-0.3c0.2-1.1,0.8-2.6,1.2-3.5c-0.9-0.3-2.5-1-3.3-1.5
			c0.5-0.8,1.7-2.1,2.4-2.8c-0.8-0.6-2.1-1.8-2.7-2.6c0.9-0.7,2.2-1.3,3.3-1.7c-0.8-1.5-1.2-3.9-1.1-5.2c-1.4-1.4-3.4-3.7-4.1-6.5
			c-1,3.5-0.8,8.4,2.5,10.6c-1.6,0-4.4,0.4-5.8,0.8c1,1.2,3.5,2.8,5,3.6c-1.2,0.4-3.3,1.6-4.2,2.4c1.1,0.7,3.6,1.5,4.8,1.8
			c-0.7,0.6-2.1,2.2-2.6,3c1,0.3,3,0.6,4.3,0.6c-0.4,0.9-0.9,2.4-1,3.3c0.6,0.1,2.7,0,3.8-0.3c-0.1,0.9-0.1,2.4,0.1,3.1
			c1-0.1,2.5-0.6,3.2-0.8c0.2,0.8,0.9,2.4,1.2,2.8c0.5-0.1,1-0.2,1.5-0.4c1.4-0.5,2.9,0.1,3.5,1.4c1,2.3,0.6,5-1.3,4.5
			c-2.2,0.4-0.7,3.2-2,4.1c1.7,1.2,2.2-1.6,4.4-1.1c-0.2,1-0.2,2.9,0,3.7c0.7-0.5,1.7-0.9,2.3-1c-0.2,0.6-0.3,2-0.1,2.9
			c0.4-0.3,3.3-1.1,3.3-1.1s-1.1,2.2-0.4,4.4c0.4,0.3,3-1,3-1.7c0.1,0.9-1,2.9-2.7,3.3c1.8,1.8,3.4,1.7,3.6,1.7c0.3,0,0.5,0,0.7-0.2
			c-0.1,0.5-0.2,1.2-0.1,1.6c0.1,0,0.2,0,0.3,0c0.5,0,0.9-0.1,1.2-0.2c0.1,0.5,0.3,1,0.6,1.4c0.1,0.1,0.1,0.1,0.2,0.2
			c0.4,0,1.4-0.5,1.6-0.8v0c0,0,0,0,0,0c0,0,0,0,0,0v0c0.2,0.3,1.2,0.8,1.6,0.8c0.1-0.1,0.2-0.1,0.2-0.2c0.4-0.4,0.6-1,0.6-1.4
			c0.4,0.2,0.8,0.2,1.2,0.2c0.1,0,0.2,0,0.3,0c0.1-0.4,0.1-1.1-0.1-1.6c0.2,0.1,0.5,0.2,0.7,0.2c0.2,0,1.8,0.1,3.6-1.7
			c-1.7-0.4-2.8-2.4-2.7-3.3c0,0.8,2.6,2,3,1.7c0.7-2.2-0.4-4.4-0.4-4.4s2.8,0.7,3.3,1.1c0.2-0.9,0.1-2.3-0.1-2.9
			c0.6,0,1.6,0.5,2.3,1c0.2-0.8,0.2-2.6,0-3.7c2.1-0.5,2.6,2.3,4.4,1.1c-1.2-0.9,0.3-3.7-2-4.1c-1.9,0.6-2.3-2.2-1.3-4.5
			c0.6-1.3,2.2-1.9,3.5-1.4c0.5,0.2,1,0.3,1.5,0.4c0.2-0.4,1-2,1.2-2.8c0.7,0.3,2.2,0.7,3.2,0.8c0.1-0.7,0.2-2.2,0.1-3.1
			c1,0.2,3.2,0.3,3.8,0.3c-0.1-1-0.6-2.5-1-3.3c1.3-0.1,3.3-0.3,4.3-0.6c-0.5-0.9-1.9-2.5-2.6-3c1.2-0.3,3.7-1.1,4.8-1.8
			C75.6,43.1,73.5,41.9,72.3,41.5z M56.1,64c-0.1,0.2-0.2,0.3-0.3,0.5c0,0.1-0.1,0.1-0.1,0.2c-0.1,0.1-0.2,0.2-0.3,0.4
			c-0.1,0.1-0.1,0.1-0.2,0.2c-0.1,0.2-0.3,0.3-0.4,0.5c-0.1,0.1-0.2,0.2-0.3,0.3c-0.1,0.1-0.2,0.2-0.3,0.3c-0.1,0.1-0.2,0.2-0.4,0.4
			c-0.1,0.1-0.1,0.1-0.2,0.2c-0.3,0.3-0.7,0.6-1.1,0.8c0,0,0,0,0,0c-0.5,0.4-1,0.7-1.6,1h0c-0.2,0.1-0.4,0.2-0.6,0.3
			c-4.5,2.3-6.7,4.1-7.4,4.6c0,0-0.1,0-0.1,0c-0.7-0.6-2.9-2.3-7.4-4.6c-0.2-0.1-0.4-0.2-0.6-0.3h0c-0.6-0.3-1.1-0.6-1.6-1
			c0,0,0,0,0,0c-0.4-0.3-0.7-0.6-1.1-0.8c-0.1-0.1-0.2-0.1-0.2-0.2c-0.1-0.1-0.3-0.2-0.4-0.4c-0.1-0.1-0.2-0.2-0.3-0.3
			c-0.1-0.1-0.2-0.2-0.3-0.3c-0.2-0.2-0.3-0.3-0.4-0.5c-0.1-0.1-0.1-0.1-0.2-0.2c-0.1-0.1-0.2-0.2-0.3-0.4c0-0.1-0.1-0.1-0.1-0.2
			c-0.1-0.2-0.2-0.3-0.3-0.5c-0.6-1.3-0.5-2.4-0.5-2.4l0,0l0-17.5c0-0.3,0.2-0.5,0.5-0.5h1.5H43h0h0h0h11.5h1.5
			c0.3,0,0.5,0.2,0.5,0.5l0,17.5l0,0C56.6,61.6,56.7,62.7,56.1,64z"/>
		<polygon class="st1" points="55.1,13.6 55.1,13.6 55.1,13.6 		"/>
		<path class="st1" d="M55.5,16c0.4,0,0.6-0.3,0.6-0.7c0-0.4-0.3-0.7-0.6-0.7c-0.4,0-0.6,0.3-0.6,0.7C54.9,15.7,55.2,16,55.5,16z"/>
		<path class="st1" d="M55.5,19.7c0.4,0,0.8-1.7,0.8-2.5c0-0.5-0.4-0.8-0.8-0.8c-0.4,0-0.8,0.3-0.8,0.8C54.7,18,55.1,19.7,55.5,19.7
			z"/>
		<polygon class="st1" points="55.1,13.6 56,13.6 55.8,12.5 56.9,12.6 56.9,11.7 55.8,11.9 56,10.8 55.1,10.8 55.2,11.9 54.1,11.7 
			54.1,12.6 55.2,12.5 		"/>
		<path class="st1" d="M51.6,21.7c0.3,0.1,0.6,0.1,0.9,0.2c0,0,0.1,0,0.1,0l0,0l0,0l0,0l0,0l0,0h0l0,0l0,0l0,0c0,0,0,0,0,0l0,0
			l0.1,0l0,0c0.1,0,0.1,0,0.1,0l0.2,0c0.1,0,0.2,0,0.3,0c0.1,0,0.1,0,0.2,0c0.1,0,0.2,0,0.3,0c0.8,0,1.6-0.2,2.4-0.4
			c0.8-0.2,1.6-0.4,2.5-0.4l0.1,0c0,0,0.1,0,0.1,0l0,0h0h0.1c0,0,0,0,0,0h0h0l0,0l0,0h0.1h0.1l0,0l0,0h0l0,0c0,0,0.1,0,0.1,0
			c0.2-0.9,0.5-1.9,0.5-2.5c0-1.2-0.7-2.5-3-2.9c0,1.5-0.7,5-1.5,5h-0.1c-0.8,0-1.5-3.5-1.5-5c-2.3,0.4-3,1.7-3,2.9
			c0,0.7,0.3,2,0.6,2.9C51.6,21.6,51.6,21.6,51.6,21.7z"/>
		<path class="st1" d="M63.6,15.4L63.6,15.4c0,0-0.6-1.6,0.4-2.1c1.1-0.4-0.4-0.2,0.4-2.4v0c0.9-2.6,2.9-2,2.9-2
			c-1.4-1.1-2.5-1-3.3-0.4c-0.5,0.4-1.2,1.2-1.7,2.8C61.9,13.3,62.6,15.2,63.6,15.4z"/>
		<path class="st1" d="M68.8,11.5c0.1,3.3,5.6,4.7,5.6,4.7s-3.2-2.3-2.6-4c0,0,2.1,0.9,4.5,0.5c-5.1-1.1-3.4-2.7-4.7-4
			c-1.3-1.4-3.3-1.5-3.8-1.6c-1.3-0.1-1.4-0.1-2.9,0.3C68.4,7.5,68.8,9.3,68.8,11.5z"/>
		<path class="st1" d="M68.1,17.7c0.7-2.6-0.6-3.8-0.6-3.8c-0.4-0.5-2.5-0.4-3.3,0.1c0,0,2,0,1.7,2.9c-0.3,2.9-4.3,3.5-5.4,3.6
			l-0.1,0.4C62.3,20.9,67.3,20.3,68.1,17.7z"/>
		<path class="st1" d="M47.2,17.6h-2c1,2.8,3.9,3.7,5.8,4l-0.1-0.3C48.9,20.5,47.9,19.7,47.2,17.6z"/>
		<path class="st1" d="M30.6,16c0.4,0,0.6-0.3,0.6-0.7c0-0.4-0.3-0.7-0.6-0.7c-0.4,0-0.6,0.3-0.6,0.7C29.9,15.7,30.2,16,30.6,16z"/>
		<path class="st1" d="M30.6,19.7c0.4,0,0.8-1.7,0.8-2.5c0-0.5-0.4-0.8-0.8-0.8c-0.4,0-0.8,0.3-0.8,0.8C29.8,18,30.1,19.7,30.6,19.7
			z"/>
		<polygon class="st1" points="30.1,13.6 31,13.6 30.9,12.5 32,12.6 32,11.7 30.9,11.9 31,10.8 30.1,10.8 30.3,11.9 29.2,11.7 
			29.2,12.6 30.3,12.5 		"/>
		<polygon class="st1" points="31,13.6 31,13.6 31,13.6 		"/>
		<path class="st1" d="M26.6,21.1L26.6,21.1L26.6,21.1L26.6,21.1L26.6,21.1l0.1,0h0.1l0,0l0,0h0h0c0,0,0,0,0,0H27h0l0,0
			c0.1,0,0.1,0,0.1,0l0.1,0c0.9,0.1,1.8,0.2,2.5,0.4c0.7,0.2,1.6,0.4,2.4,0.4c0.1,0,0.2,0,0.3,0c0.1,0,0.1,0,0.2,0
			c0.1,0,0.2,0,0.3,0l0.2,0c0,0,0.1,0,0.1,0l0,0l0.1,0l0,0c0,0,0,0,0,0l0,0l0,0l0,0h0l0,0l0,0l0,0l0,0l0,0c0,0,0.1,0,0.1,0
			c0.3,0,0.6-0.1,0.9-0.2c0-0.1,0-0.1,0.1-0.1c0.3-0.9,0.6-2.2,0.6-2.9c0-1.2-0.6-2.5-3-2.9c0,1.4-0.7,5-1.5,5h-0.1
			c-0.8,0-1.5-3.5-1.5-5c-2.3,0.4-3,1.7-3,2.9c0,0.6,0.2,1.6,0.5,2.5C26.5,21.1,26.5,21.1,26.6,21.1z"/>
		<path class="st1" d="M18.7,8.9c0,0,2-0.6,2.9,2v0c0.8,2.2-0.7,2,0.4,2.4c1.1,0.4,0.4,2.1,0.4,2.1l0,0c1.1-0.2,1.8-2.1,1.2-4.2
			c-0.5-1.6-1.2-2.4-1.7-2.8C21.1,7.9,20.1,7.8,18.7,8.9z"/>
		<path class="st1" d="M14.2,12.2c0.6,1.7-2.6,4-2.6,4s5.6-1.4,5.6-4.7c0.1-2.2,0.4-4,3.8-4.1c-1.5-0.3-1.6-0.3-2.9-0.3
			c-0.5,0-2.5,0.2-3.8,1.6c-1.2,1.3,0.4,2.9-4.7,4C12.1,13.1,14.2,12.2,14.2,12.2z"/>
		<path class="st1" d="M20.2,16.9C19.9,14,21.9,14,21.9,14c-0.7-0.5-2.8-0.5-3.3-0.1c0,0-1.3,1.1-0.6,3.8c0.7,2.6,5.8,3.2,7.7,3.2
			l-0.1-0.4C24.5,20.4,20.5,19.8,20.2,16.9z"/>
		<path class="st1" d="M40.9,17.6h-2c-0.7,2.1-1.7,2.9-3.7,3.7l-0.1,0.3C37.1,21.3,39.9,20.4,40.9,17.6z"/>
		<path class="st1" d="M45.6,29.9c-0.6,0.9-1.1,1.9-1.5,2.9c0.3-0.4,0.8-0.8,1.3-1.2c0.9-0.6,1.7-1,1.7-1l0.8-0.3l-0.2,0.8
			c0,0-0.3,1.3-0.2,2.4c0,0.5,0.2,1,0.3,1.3c0.2-0.5,0.5-1,0.8-1.5c1-1.3,1.8-1.8,1.8-1.8l0.6-0.3l0,0.7c0,0,0.2,2.3,0.7,3.5
			c0.9,2,2.6,3.1,3.6,3.6c-0.1-0.1-0.3-0.3-0.5-0.5c-0.5-0.5-1-1.4-1.3-3.3c-0.2-1.6,0.4-3.2,0.6-3.7c0.1,0.4,0.3,0.8,0.5,0.9
			c0,0,0-0.4,0.1-0.8c0.2-1.1,1.4-2.8,3-3.8c0.3-0.2,0.6-0.4,0.8-0.5c0.3-0.1,0.5-0.3,0.7-0.5c-0.3,0-0.7,0.1-1,0.1l-0.1,0
			c-0.2,0-0.5,0-0.9,0c-0.8,0-1.7-0.1-2.4-0.7c-0.7-0.6-1-1.2-1.1-1.6c-0.3,0-0.7,0-1.2,0c-0.6,0-1.1-0.2-1.4-0.2
			c-0.8,0.5-1.6,0.7-2.6,0.8c-0.1,0-0.3,0-0.4,0c0.3,0.3,0.7,0.5,1,0.7c0,0,0,0,0.1,0l-0.2,0.1C49.1,25.9,47.7,26.7,45.6,29.9z"/>
		<path class="st1" d="M58.7,24.3c-0.4,0-0.7,0-1.1,0c0,0.2,0,0.4,0,0.6c0.1,0.3,0.2,0.5,0.4,0.7C58.3,25.4,58.6,24.9,58.7,24.3z"/>
		<path class="st1" d="M59.5,22L59.5,22L59.5,22C59.4,22,59.4,22,59.5,22L59.5,22L59.5,22L59.5,22l-0.1,0h0c0,0,0,0-0.1,0h0h0h0h0h0
			c0,0,0,0,0,0h0h0h0c0,0,0,0,0,0c-0.1,0-0.1,0-0.2,0c-0.8,0-1.6,0.2-2.4,0.4c-0.8,0.2-1.7,0.4-2.5,0.4c-0.2,0-0.3,0-0.5,0
			c-0.1,0-0.2,0-0.3,0c-0.1,0-0.1,0-0.2,0c-0.1,0-0.1,0-0.2,0c0,0,0,0,0,0c0,0,0,0,0,0c0,0,0,0-0.1,0c0,0,0,0,0,0c0,0,0,0,0,0
			c0,0,0,0-0.1,0c0,0,0,0,0,0c0,0,0,0,0,0c-1.8-0.2-3-0.8-3.6-1.1c0.1,0.2,0.3,0.4,0.6,0.7c0.1,0.1,0.2,0.2,0.3,0.3
			c0.2,0.2,0.5,0.4,0.8,0.6c0.4,0.2,2.1,0.9,4.3,0.6c2.5-0.4,3-0.3,3.6-0.3l0.2,0c0.9,0.1,2.2,0.6,2.7,0.9c0.2-0.5,0.5-1,0.6-1.5
			c-0.1-0.1-0.3-0.3-0.7-0.5c-0.1-0.1-0.2-0.1-0.4-0.2c-0.2-0.1-0.5-0.2-0.9-0.2C59.9,22,59.7,22,59.5,22L59.5,22z"/>
		<path class="st1" d="M66.5,30.2L66.5,30.2C66.5,30.2,66.5,30.2,66.5,30.2c-0.1,0-1,0.5-2.9-0.7c-1.9-1.2-3.3-1.7-4.1-1.9
			c-0.2,0.1-0.3,0.2-0.5,0.3c-0.2,0.1-0.5,0.3-0.8,0.5c-0.1,0.1-0.2,0.1-0.3,0.2c0,0,0.1,0,0.2,0c1.8,0.2,3.2,1.2,3.3,1.6
			c0,0,0.1,0,0.1,0c0.2-0.6-0.1-1.1-0.1-1.1s0.8,0.5,2.4,1.4C65.5,31.6,66.2,30.6,66.5,30.2z"/>
		<path class="st1" d="M57,25.3c-0.1-0.1-0.2-0.3-0.3-0.4c-0.1-0.2-0.1-0.3-0.1-0.4c-0.4,0-0.9,0.1-1.5,0.2c-0.1,0-0.3,0-0.4,0
			c0.3,0.6,0.8,1.2,1.8,1.4c0.1,0,0.1,0,0.2,0c0.1,0,0.1,0,0.2,0c0.4,0.1,0.9,0.1,1.2,0.1c0.7,0,1.5-0.1,2.3-0.3
			c0.2-0.2,0.3-0.5,0.5-0.7c0,0-0.1-0.1-0.2-0.1c-0.2-0.1-0.7-0.4-1-0.5c-0.1,0.3-0.3,0.6-0.5,0.8c-0.3,0.2-0.7,0.3-1.1,0.3
			c-0.4,0-0.8-0.1-1-0.3C57,25.4,57,25.3,57,25.3z"/>
		<path class="st1" d="M62.3,23.8c-0.6,1.6-1.6,2.8-2.3,3.4c0,0,0,0,0,0c4.5-1.2,5.3,1.1,5.3,1.2c0,0.1,0,0.1,0.1,0
			c0.1-0.1,1.6-1.7,0.5-3.2C65,24,63,23.8,62.3,23.8z M62.3,25L62.3,25c0.2-0.2,0.3-0.6,0.3-0.6c0.3,0,0.9,0.1,0.9,0.5
			C63.1,24.8,62.6,24.8,62.3,25z"/>
		<path class="st1" d="M28.5,24.9c0-0.2,0-0.4,0-0.6c-0.4,0-0.8,0-1.1,0c0.1,0.6,0.4,1.1,0.7,1.3C28.3,25.4,28.4,25.2,28.5,24.9z"/>
		<path class="st1" d="M33.6,22.7C33.6,22.7,33.6,22.7,33.6,22.7C33.5,22.7,33.5,22.7,33.6,22.7c-0.1,0-0.1,0-0.1,0c0,0,0,0,0,0
			c0,0,0,0-0.1,0c0,0,0,0,0,0c0,0,0,0,0,0c-0.1,0-0.1,0-0.2,0c-0.1,0-0.1,0-0.2,0c-0.1,0-0.2,0-0.3,0c-0.2,0-0.3,0-0.5,0
			c-0.9,0-1.7-0.2-2.5-0.4C28.8,22.2,28,22,27.2,22c-0.1,0-0.1,0-0.2,0c0,0,0,0,0,0h0h0h0c0,0,0,0,0,0h0h0h0h0h0c0,0,0,0-0.1,0h0h0
			h0h0h0c0,0,0,0,0,0h0h0h0c-0.2,0-0.4,0-0.5,0c-0.4,0-0.7,0.1-0.9,0.2c-0.1,0.1-0.3,0.1-0.4,0.2c-0.3,0.2-0.5,0.3-0.7,0.5
			c0.1,0.5,0.4,1.1,0.6,1.5c0.5-0.3,1.8-0.9,2.7-0.9l0.2,0c0.6,0,1.1-0.1,3.6,0.3c2.2,0.3,3.8-0.4,4.3-0.6c0.3-0.2,0.6-0.4,0.8-0.6
			c0.1-0.1,0.2-0.2,0.3-0.3c0.2-0.3,0.4-0.5,0.6-0.7C36.6,21.9,35.4,22.5,33.6,22.7C33.6,22.7,33.6,22.7,33.6,22.7z"/>
		<path class="st1" d="M19.6,30.2L19.6,30.2c0.3,0.3,1,1.4,2.6,0.5c1.6-0.9,2.4-1.4,2.4-1.4s-0.3,0.5-0.1,1.1c0,0,0,0,0.1,0
			c0.2-0.4,1.6-1.5,3.3-1.6c0.1,0,0.1,0,0.2,0c-0.1-0.1-0.2-0.1-0.3-0.2c-0.3-0.2-0.6-0.4-0.8-0.5c-0.2-0.1-0.3-0.2-0.5-0.3
			c-0.8,0.1-2.2,0.7-4.1,1.9C20.6,30.7,19.7,30.2,19.6,30.2C19.6,30.2,19.6,30.2,19.6,30.2z"/>
		<path class="st1" d="M26.4,24.6c-0.2,0.1-0.8,0.4-1,0.5c-0.1,0-0.1,0.1-0.2,0.1c0.2,0.3,0.3,0.5,0.5,0.7c0.8,0.2,1.6,0.3,2.3,0.3
			c0.4,0,0.8,0,1.2-0.1c0.1,0,0.1,0,0.2,0c0.1,0,0.1,0,0.2,0c1-0.2,1.6-0.9,1.8-1.4c-0.1,0-0.3,0-0.4,0c-0.6-0.1-1.1-0.2-1.5-0.2
			c0,0.1-0.1,0.3-0.1,0.4c-0.1,0.2-0.2,0.3-0.3,0.4c0,0-0.1,0.1-0.1,0.1c-0.3,0.2-0.6,0.3-1,0.3c-0.4,0-0.8-0.1-1.1-0.3
			C26.6,25.2,26.5,24.9,26.4,24.6z"/>
		<path class="st1" d="M20.1,25.2c-1.1,1.5,0.4,3.1,0.5,3.2c0.1,0.1,0.1,0,0.1,0c0-0.1,0.8-2.4,5.3-1.2c0,0,0,0,0,0
			c-0.7-0.6-1.7-1.8-2.3-3.4C23.1,23.8,21,24,20.1,25.2z M23.8,25c-0.3-0.2-0.8-0.2-1.2-0.1c0-0.4,0.6-0.5,0.9-0.5
			C23.5,24.4,23.6,24.8,23.8,25L23.8,25z"/>
		<path class="st1" d="M37.9,25.2c-0.1,0-0.3,0-0.4,0c-1,0-1.8-0.3-2.6-0.8c-0.3,0.1-0.9,0.2-1.4,0.2c-0.5,0-1,0-1.2,0
			c-0.1,0.4-0.4,1.1-1.1,1.6c-0.7,0.6-1.6,0.7-2.4,0.7c-0.4,0-0.7,0-0.9,0l-0.1,0c-0.2,0-0.6-0.1-1-0.1c0.3,0.2,0.5,0.3,0.7,0.5
			c0.2,0.1,0.5,0.3,0.8,0.5c1.6,1.1,2.8,2.7,3,3.8c0.1,0.4,0.1,0.8,0.1,0.8c0.2-0.1,0.4-0.5,0.5-0.9c0.2,0.5,0.9,2.1,0.6,3.7
			c-0.3,1.9-0.8,2.8-1.3,3.3c-0.2,0.2-0.4,0.4-0.5,0.5c1-0.5,2.7-1.6,3.6-3.6C34.8,34.3,35,32,35,32l0-0.7l0.6,0.3
			c0,0,0.9,0.5,1.8,1.8c0.3,0.5,0.6,1,0.8,1.5c0.1-0.4,0.2-0.8,0.3-1.3c0.1-1.2-0.2-2.4-0.2-2.4l-0.2-0.8l0.8,0.3c0,0,0.8,0.3,1.7,1
			c0.6,0.4,1,0.8,1.3,1.2c-0.4-1-0.8-2-1.5-2.9c-2.1-3.2-3.4-3.9-3.4-3.9l-0.2-0.1c0,0,0,0,0.1,0C37.2,25.7,37.6,25.4,37.9,25.2z"/>
	</g>
</g>
</svg>
